<?xml version="1.0" encoding="utf-8"?>
<!-- Generator: Adobe Illustrator 26.3.1, SVG Export Plug-In . SVG Version: 6.00 Build 0)  -->
<svg version="1.1" id="Layer_1" xmlns="http://www.w3.org/2000/svg" xmlns:xlink="http://www.w3.org/1999/xlink" x="0px" y="0px"
	 viewBox="0 0 1307.9 1080" style="enable-background:new 0 0 1307.9 1080;" xml:space="preserve">
<style type="text/css">
	.st0{display:none;}
	.st1{display:inline;fill:none;stroke:#BC0094;stroke-width:16;stroke-miterlimit:10;}
	.st2{fill:none;stroke:#000000;stroke-width:16;stroke-linejoin:round;stroke-miterlimit:10;}
	.st3{stroke:#000000;stroke-width:16;stroke-miterlimit:10;}
	.st4{fill:none;stroke:#000000;stroke-width:16;stroke-miterlimit:10;}
	.st5{fill:none;stroke:#000000;stroke-width:16;stroke-linecap:round;stroke-miterlimit:10;}
	.st6{fill:none;stroke:#000000;stroke-width:16;stroke-linecap:round;stroke-linejoin:round;stroke-miterlimit:10;}
</style>
<rect x="-228.3" y="-16" class="st0" width="2078" height="1136"/>
<image style="display:none;overflow:visible;opacity:0.34;enable-background:new    ;" width="1180" height="786" xlink:href="datcord_logo.png"  transform="matrix(1 0 0 1 69.6738 120)">
</image>
<g class="st0">
	<path class="st1" d="M655.5,835.6c91.7,2.1,163-15.6,163-15.6"/>
	<path class="st1" d="M997.5,481c17.9,17,36,29.5,53.8,38.5c99,50.2,190.2-6.5,190.2-6.5s10-145-112-234S943,265.5,943,265.5
		c-6-60.4-22.6-134.1-48.5-140.5c-43.2-10.7-101.6,77-101.6,77c-47-14.9-94.7-19.7-137.4-19.6"/>
	<path class="st1" d="M1051.3,519.5c0,0,45.4,203.1-176.2,367.8c0,0-78.6,64.7-114.6-64.3"/>
</g>
<g>
	<g>
		<path class="st2" d="M655.2,855.1c-91.7,2.1-163-15.6-163-15.6"/>
		<path class="st2" d="M655.2,201.9c-42.7-0.2-90.4,4.6-137.4,19.6c0,0-58.4-87.7-101.6-77c-25.9,6.4-42.5,80.1-48.5,140.5
			c0,0-64.5-75.5-186.5,13.5s-112,234-112,234s91.2,56.7,190.2,6.5c17.9-9,36-21.6,53.8-38.5"/>
		<path class="st2" d="M259.4,539c0,0-45.4,203.1,176.2,367.8c0,0,78.6,64.7,114.6-64.3"/>
	</g>
	<ellipse class="st3" cx="482.7" cy="462.5" rx="99.5" ry="104"/>
	<path class="st4" d="M655.2,552.8c0,0-92-4.3-105,77.7c-1.5,9.7-2.7,19.1-1.5,29c2.3,19.6,12.8,36.6,30.6,45.9
		c9,4.7,19,7.2,29.1,8.5c15.3,2,31.2,2.4,46.6,2.3"/>
	<path d="M629.2,572.5c0,0-8-2-9,7s11,7,11,7s5.4-2,5.2-7S632.2,572.5,629.2,572.5z"/>
</g>
<g>
	<g>
		<path class="st5" d="M654.2,855.1c91.7,2.1,163-15.6,163-15.6"/>
		<path class="st6" d="M654.2,201.9c42.7-0.2,90.4,4.6,137.4,19.6c0,0,58.4-87.7,101.6-77c25.9,6.4,42.5,80.1,48.5,140.5
			c0,0,64.5-75.5,186.5,13.5s112,234,112,234S1149,589.2,1050,539c-17.9-9-36-21.6-53.8-38.5"/>
		<path class="st2" d="M1050,539c0,0,45.4,203.1-176.2,367.8c0,0-78.6,64.7-114.6-64.3"/>
	</g>
	<ellipse class="st3" cx="826.7" cy="462.5" rx="99.5" ry="104"/>
	<path class="st4" d="M654.2,552.8c0,0,92-4.3,105,77.7c1.5,9.7,2.7,19.1,1.5,29c-2.3,19.6-12.8,36.6-30.6,45.9
		c-9,4.7-19,7.2-29.1,8.5c-15.3,2-31.2,2.4-46.6,2.3"/>
	<path d="M680.2,572.5c0,0,8-2,9,7s-11,7-11,7s-5.4-2-5.2-7S677.2,572.5,680.2,572.5z"/>
</g>
<path class="st3" d="M791.6,221.5c0,0,94.6,25,150.1,63.5c0,0-70.5,66-182.5,27.8c0,0-86.4-34.8-86.2-110.6
	C673,202.2,727,200.5,791.6,221.5z"/>
<path class="st3" d="M492.2,839.5c0,0-166.1-38.4-195-89.7L270,682.6c0,0,20.4-47.1,73.3-48.1c0,0,36.9-2,65.9,58
	c12.6,26,37.7,58.2,69.5,58.2c17.9,0.1,34.7-3.3,52.7,0.4c49.3,10.2,62.2,57.2,57.5,102.2C588.9,853.4,538.2,851.5,492.2,839.5z"/>
</svg>
