<?xml version="1.0" encoding="utf-8"?>
<!-- Generator: Adobe Illustrator 26.3.1, SVG Export Plug-In . SVG Version: 6.00 Build 0)  -->
<svg version="1.1" id="Layer_1" xmlns="http://www.w3.org/2000/svg" xmlns:xlink="http://www.w3.org/1999/xlink" x="0px" y="0px"
	 viewBox="0 0 150.4 36" style="enable-background:new 0 0 150.4 36;" xml:space="preserve">
<style type="text/css">
	.st0{display:none;}
	.st1{fill:#FFFFFF;}
	.st2{fill:none;stroke:#FFFFFF;stroke-width:16;stroke-linejoin:round;stroke-miterlimit:10;}
	.st3{fill:#FFFFFF;stroke:#FFFFFF;stroke-width:16;stroke-miterlimit:10;}
	.st4{fill:none;stroke:#FFFFFF;stroke-width:16;stroke-miterlimit:10;}
	.st5{fill:none;stroke:#FFFFFF;stroke-width:16;stroke-linecap:round;stroke-miterlimit:10;}
	.st6{fill:none;stroke:#FFFFFF;stroke-width:16;stroke-linecap:round;stroke-linejoin:round;stroke-miterlimit:10;}
	.st7{fill:none;stroke:#FFFFFF;stroke-linecap:round;stroke-linejoin:round;stroke-miterlimit:10;}
	.st8{fill:none;stroke:#FFFFFF;stroke-miterlimit:10;}
	.st9{fill:#FFFFFF;stroke:#FFFFFF;stroke-linecap:round;stroke-linejoin:round;stroke-miterlimit:10;}
	.st10{fill:none;stroke:#FFFFFF;stroke-linecap:round;stroke-miterlimit:10;}
	.st11{fill:#FFFFFF;stroke:#FFFFFF;stroke-miterlimit:10;}
</style>
<ellipse class="st0" cx="63.5" cy="20.8" rx="189.6" ry="101.3"/>
<g>
	<path class="st1" d="M52.7,10.4h7c1.7,0,3.1,0.3,4.3,0.8c1.2,0.5,2,1.3,2.6,2.2c0.6,0.9,0.9,2,0.9,3.2c0,1.2-0.3,2.3-0.9,3.2
		c-0.6,1-1.5,1.7-2.8,2.3c-1.2,0.6-2.8,0.8-4.6,0.8h-6.5L52.7,10.4z M59.1,19.7c1.1,0,2-0.3,2.6-0.8c0.6-0.6,0.9-1.3,0.9-2.3
		c0-0.9-0.3-1.6-0.8-2.2s-1.4-0.8-2.5-0.8h-2.2v6.2H59.1z"/>
	<path class="st1" d="M95.6,22.5c-1-0.5-1.8-1.2-2.3-2c-0.5-0.9-0.8-1.8-0.8-2.9c0-1.1,0.3-2,0.8-2.9c0.5-0.8,1.3-1.5,2.4-2
		c1-0.5,2.3-0.7,3.7-0.7c1.8,0,3.3,0.4,4.5,1.1v3.3c-0.4-0.3-0.9-0.5-1.5-0.7c-0.6-0.2-1.1-0.3-1.8-0.3c-1.1,0-2,0.2-2.6,0.6
		c-0.6,0.4-0.9,0.9-0.9,1.6c0,0.6,0.3,1.2,0.9,1.6c0.6,0.4,1.5,0.6,2.6,0.6c0.6,0,1.2-0.1,1.8-0.3c0.6-0.2,1.1-0.4,1.5-0.6v3.2
		c-1.3,0.8-2.8,1.2-4.6,1.2C97.8,23.2,96.6,23,95.6,22.5z"/>
	<path class="st1" d="M108.3,22.5c-1-0.5-1.8-1.2-2.4-2.1s-0.8-1.8-0.8-2.9s0.3-2,0.8-2.9s1.3-1.5,2.4-2c1-0.5,2.2-0.7,3.7-0.7
		c1.4,0,2.6,0.2,3.7,0.7s1.8,1.1,2.3,2c0.5,0.8,0.8,1.8,0.8,2.9c0,1.1-0.3,2-0.8,2.9c-0.5,0.9-1.3,1.6-2.4,2.1s-2.3,0.8-3.7,0.8
		S109.3,23,108.3,22.5z M113.7,19.3c0.4-0.4,0.7-1,0.7-1.7s-0.2-1.3-0.7-1.7c-0.4-0.4-1-0.6-1.8-0.6c-0.8,0-1.4,0.2-1.8,0.6
		c-0.4,0.4-0.7,1-0.7,1.7s0.2,1.3,0.7,1.7c0.4,0.4,1,0.7,1.8,0.7C112.7,20,113.3,19.8,113.7,19.3z"/>
	<path class="st1" d="M129.5,12.6v3.9c-0.5-0.3-1-0.4-1.8-0.4c-1,0-1.7,0.3-2.2,0.9c-0.5,0.6-0.8,1.5-0.8,2.7v3.3h-4.4V12.4h4.3v3.3
		c0.2-1.2,0.6-2.1,1.2-2.7c0.5-0.6,1.2-0.9,2-0.9C128.5,12.2,129,12.3,129.5,12.6z"/>
	<path class="st1" d="M144.1,10v12.9h-4.4v-2.3c-0.4,0.9-0.9,1.6-1.7,2c-0.8,0.5-1.7,0.7-2.8,0.7c-1,0-1.9-0.2-2.6-0.7
		c-0.7-0.5-1.3-1.1-1.7-2c-0.4-0.8-0.6-1.8-0.6-2.9c0-1.1,0.2-2.1,0.6-3c0.4-0.9,1.1-1.6,1.8-2c0.8-0.5,1.7-0.7,2.7-0.7
		c2.1,0,3.5,0.9,4.2,2.7V10H144.1z M139,19.3c0.4-0.4,0.7-1,0.7-1.7c0-0.7-0.2-1.2-0.7-1.6c-0.4-0.4-1-0.6-1.8-0.6
		c-0.7,0-1.3,0.2-1.8,0.6s-0.7,1-0.7,1.7s0.2,1.2,0.7,1.7c0.4,0.4,1,0.6,1.8,0.6C138,19.9,138.6,19.7,139,19.3z"/>
	<path class="st1" d="M82.4,11.7v10.9H78v-2.3c-0.4,0.9-0.9,1.6-1.7,2c-0.8,0.5-1.7,0.7-2.8,0.7c-1,0-1.9-0.2-2.6-0.7
		c-0.7-0.5-1.3-1.1-1.7-2c-0.4-0.8-0.6-1.8-0.6-2.9c0-1.1,0.2-2.1,0.6-3c0.4-0.9,1.1-1.6,1.8-2c0.8-0.5,1.7-0.7,2.7-0.7
		c2.1,0,3.5,0.9,4.2,2.7v-2.6H82.4z M77.3,18.9c0.4-0.4,0.7-1,0.7-1.7c0-0.7-0.2-1.2-0.7-1.6c-0.4-0.4-1-0.6-1.8-0.6
		c-0.7,0-1.3,0.2-1.8,0.6s-0.7,1-0.7,1.7s0.2,1.2,0.7,1.7c0.4,0.4,1,0.6,1.8,0.6C76.3,19.5,76.9,19.3,77.3,18.9z"/>
	<g>
		<path class="st1" d="M85.6,14.5V9.8H90v12.9h-4.4v-2.3 M85.6,17.3"/>
		<rect x="83.7" y="12" class="st1" width="8.1" height="2.1"/>
	</g>
</g>
<g>
	<g>
		<path class="st2" d="M-565.4,664.2c-28.3,0.7-50.2-4.8-50.2-4.8"/>
		<path class="st2" d="M-565.3,463c-13.1,0-27.9,1.4-42.3,6c0,0-18-27-31.3-23.7c-8,2-13.1,24.7-14.9,43.3c0,0-19.9-23.3-57.5,4.2
			s-34.5,72.1-34.5,72.1s28.1,17.5,58.6,2c5.5-2.8,11.1-6.6,16.6-11.9"/>
		<path class="st2" d="M-687.3,566.8c0,0-14,62.6,54.3,113.3c0,0,24.2,19.9,35.3-19.8"/>
	</g>
	<ellipse class="st3" cx="-618.5" cy="543.2" rx="30.7" ry="32"/>
	<path class="st4" d="M-565.4,571c0,0-28.3-1.3-32.3,23.9c-0.5,3-0.8,5.9-0.5,8.9c0.7,6,4,11.3,9.4,14.1c2.8,1.4,5.9,2.2,9,2.6
		c4.7,0.6,9.6,0.7,14.4,0.7"/>
	<path class="st1" d="M-573.4,577.1c0,0-2.5-0.6-2.8,2.2c-0.3,2.8,3.4,2.2,3.4,2.2s1.7-0.6,1.6-2.2
		C-571.2,577.7-572.4,577.1-573.4,577.1z"/>
</g>
<g>
	<g>
		<path class="st5" d="M-565.7,664.2c28.3,0.7,50.2-4.8,50.2-4.8"/>
		<path class="st6" d="M-565.7,463c13.1,0,27.9,1.4,42.3,6c0,0,18-27,31.3-23.7c8,2,13.1,24.7,14.9,43.3c0,0,19.9-23.3,57.5,4.2
			s34.5,72.1,34.5,72.1s-28.1,17.5-58.6,2c-5.5-2.8-11.1-6.6-16.6-11.9"/>
		<path class="st2" d="M-443.7,566.8c0,0,14,62.6-54.3,113.3c0,0-24.2,19.9-35.3-19.8"/>
	</g>
	<ellipse class="st3" cx="-512.5" cy="543.2" rx="30.7" ry="32"/>
	<path class="st4" d="M-565.7,571c0,0,28.3-1.3,32.3,23.9c0.5,3,0.8,5.9,0.5,8.9c-0.7,6-4,11.3-9.4,14.1c-2.8,1.4-5.9,2.2-9,2.6
		c-4.7,0.6-9.6,0.7-14.4,0.7"/>
	<path class="st1" d="M-557.6,577.1c0,0,2.5-0.6,2.8,2.2c0.3,2.8-3.4,2.2-3.4,2.2s-1.7-0.6-1.6-2.2
		C-559.8,577.7-558.6,577.1-557.6,577.1z"/>
</g>
<path class="st3" d="M-523.3,469c0,0,29.1,7.7,46.2,19.6c0,0-21.7,20.3-56.2,8.6c0,0-26.6-10.7-26.6-34.1
	C-559.9,463-543.2,462.5-523.3,469z"/>
<path class="st3" d="M-615.6,659.4c0,0-51.2-11.8-60.1-27.6L-684,611c0,0,6.3-14.5,22.6-14.8c0,0,11.4-0.6,20.3,17.9
	c3.9,8,11.6,17.9,21.4,17.9c5.5,0,10.7-1,16.2,0.1c15.2,3.2,19.2,17.6,17.7,31.5C-585.8,663.7-601.4,663.1-615.6,659.4z"/>
<g>
	<g>
		<path class="st7" d="M25,5.3c0,0-3.3,0-4.7,0.6c0,0-4.4-6.9-4.8,2.1c0-0.1-0.5-0.3-0.6-0.4c-0.5-0.3-1.1-0.4-1.7-0.5
			C11.1,7,9.1,8.4,7.9,10c-1.4,1.7-2,3.8-2.1,6.1c0,0,3,1.9,6.2,0.2c0.5-0.3,1-0.6,1.6-1.1"/>
		<path class="st8" d="M21.4,26.3c-0.4,1-0.9,1.8-1.9,2.2c-1.1,0.5-2.1-0.2-2.9-0.9c-1.1-1-2-2.2-2.8-3.5c-2.7-4.3-1.8-7.9-1.8-7.9"
			/>
		<path class="st7" d="M24.7,26.6c0,0-2.9,0.1-4.7-0.6"/>
		<ellipse class="st9" cx="19.2" cy="13.8" rx="3.2" ry="3.4"/>
		<path class="st8" d="M25,16.7c-0.4,0-0.7,0-1.1,0.1c-1.2,0.2-2.1,1.1-2.5,2.3c-0.2,0.9-0.1,1.9,0.7,2.5c0.8,0.6,1.7,0.6,2.6,0.6"
			/>
		<path class="st1" d="M24,17.3c-0.1,0-0.3,0-0.3,0.2c0,0.2,0.1,0.3,0.2,0.3c0.1,0,0.2,0,0.2-0.1C24.2,17.6,24.1,17.3,24,17.3z"/>
	</g>
	<g>
		<path class="st7" d="M24.3,5.3c0,0,3.3,0,4.7,0.6c0,0,4.4-6.9,4.8,2.1c0-0.1,0.5-0.3,0.6-0.4c0.5-0.3,1.1-0.4,1.7-0.5
			c2.1-0.2,4.1,1.2,5.3,2.8c1.4,1.7,2,3.8,2.1,6.1c0,0-3,1.9-6.2,0.2c-0.5-0.3-1-0.6-1.6-1.1"/>
		<path class="st8" d="M27.8,26.3c0.4,1,0.9,1.8,1.9,2.2c1.1,0.5,2.1-0.2,2.9-0.9c1.1-1,2-2.2,2.8-3.5c2.7-4.3,1.8-7.9,1.8-7.9"/>
		<path class="st10" d="M24.7,26.6c0,0,2.6,0.1,4.5-0.6"/>
		<ellipse class="st9" cx="30.1" cy="13.8" rx="3.2" ry="3.4"/>
		<path class="st8" d="M24.3,16.7c1-0.1,2.2,0.3,2.9,1.1c0.3,0.4,0.5,0.8,0.6,1.2c0.2,0.9,0.1,1.9-0.7,2.5C26.3,22,25.5,22,24.6,22"
			/>
		<path class="st1" d="M25.3,17.3c0.1,0,0.3,0,0.3,0.2c0,0.2-0.1,0.3-0.2,0.3c-0.1,0-0.2,0-0.2-0.1C25,17.6,25.1,17.3,25.3,17.3z"/>
	</g>
	<path class="st11" d="M20.7,26.1c0,0-6.4-1.3-7.7-3.4l-0.7-2c0,0,0.8-1.6,2.3-1.5s2.3,1.7,2.3,1.7s0.6,1.9,1.9,2s2.4-0.3,3.5,0.8
		s0.7,2.6,0.7,2.6L20.7,26.1z"/>
	<path class="st11" d="M28.5,5.8c0,0,3.4,0.8,5.2,2l0.2,0.1c0,0-1.8,2-4.7,1.6c-2.9-0.4-4-2.6-4.2-4.1C25,5.3,27.5,5.4,28.5,5.8z"/>
</g>
</svg>
