<?xml version="1.0" encoding="utf-8"?>
<!-- Generator: Adobe Illustrator 26.3.1, SVG Export Plug-In . SVG Version: 6.00 Build 0)  -->
<svg version="1.1" xmlns="http://www.w3.org/2000/svg" xmlns:xlink="http://www.w3.org/1999/xlink" x="0px" y="0px"
	 viewBox="0 0 689 352" style="enable-background:new 0 0 689 352;" xml:space="preserve">
<style type="text/css">
	.st0{fill:#404EED;}
	.st1{fill:#2835BD;}
	.st2{fill:#FFC619;}
	.st3{fill:none;stroke:#000000;stroke-width:2;stroke-linecap:round;stroke-linejoin:round;}
	.st4{fill:#FFFFFF;}
	.st5{fill:#DE3A93;}
	.st6{fill:#FF78B9;}
	.st7{fill:none;stroke:#000000;stroke-width:8;stroke-linecap:round;stroke-linejoin:round;}
	.st8{fill:none;stroke:#2835BD;stroke-width:8;stroke-linecap:round;stroke-linejoin:round;}
	.st9{fill:#8CD9FF;}
	.st10{fill:#5865F2;}
	.st11{fill:#121B80;}
	.st12{fill:#FFE75C;}
	.st13{fill:#29CC7A;}
	.st14{fill:none;stroke:#FFFFFF;stroke-width:2;stroke-linecap:round;stroke-miterlimit:10;}
	.st15{fill:none;stroke:#000000;stroke-width:4;stroke-linecap:round;stroke-miterlimit:10;}
	.st16{fill:#15AD75;}
	.st17{fill:#57F287;}
	.st18{fill:#FFE6F8;}
	.st19{fill:none;stroke:#000000;stroke-width:2;stroke-linecap:round;stroke-miterlimit:10;}
	.st20{fill:none;stroke:#FFFFFF;stroke-width:3.0059;stroke-linecap:round;stroke-miterlimit:10;}
	.st21{fill:#66BCFF;}
	.st22{fill:#45AAF7;}
	.st23{fill:#A3E1FF;}
	.st24{fill:#FFA8D2;}
	.st25{fill:#FF8C19;}
	.st26{fill:#3442D9;}
	.st27{fill:#287CEB;}
	.st28{fill:none;stroke:#4150F2;stroke-width:2;stroke-linecap:round;stroke-miterlimit:10;}
	.st29{fill:none;stroke:#F551A0;stroke-width:2;stroke-linecap:round;stroke-linejoin:round;}
	.st30{fill:#F551A0;}
	.st31{fill:#3F4EEB;}
	.st32{fill:none;stroke:#FF8C19;stroke-width:3;stroke-linecap:round;stroke-linejoin:round;stroke-miterlimit:10;}
	.st33{fill:none;stroke:#FFA8D2;stroke-width:3;stroke-linecap:round;stroke-linejoin:round;}
	.st34{fill:none;stroke:#000000;stroke-width:3;stroke-miterlimit:10;}
	.st35{fill:#FFC2DB;}
	.st36{fill:#F299CA;}
	.st37{fill:#FFF5DC;}
	.st38{fill:none;stroke:#000000;stroke-linecap:round;stroke-miterlimit:10;}
	.st39{fill:#FFD766;}
</style>
<g id="Layer_1">
	<path class="st0" d="M291.4,351.9H18.1C6.8,341.8-0.1,330.1,1,319.3c2.3-23.3,39-26.7,74.6-9.9l7,3.5c1.2-4.3,3.1-8.3,5.6-12
		c17.8-26.1,58-28.6,84-9.5c2.9,2.1,5.5,4.4,8,7c3.5-4.8,7.5-9.3,11.9-13.3c24.1-21.8,52.7-26.5,63.6-13.1
		c9.6,11.8,2.2,34.5-16,52.4C239.7,324.4,293.5,325.7,291.4,351.9z"/>
	<path class="st1" d="M629.4,351.4c-22.1-45.6-34.5-100.2-34.5-100.2l-1-5.3l-44.5,5.3v100.2H629.4z"/>
	<path d="M619.8,351.4c-19.4-40-30.2-87.9-30.2-87.9l-2.6-13.4l-37.3,13.4v87.9H619.8z"/>
	<path class="st1" d="M626.8,218h-16.2v133.5h16.2V218z"/>
	<path d="M626.8,235.3c-2.4,1.1-5.1,1.5-7.8,1.1c-2.6-0.4-5.1-1.5-7.1-3.2l-1.3-1.1v-6l16.2-3.1V235.3z"/>
	<path class="st2" d="M602,351.4c11.1-2.7,26.2-17.4,26.2-17.4s5.3,11.4,8.4,17.4h11.2c1.2,0,2.4-0.2,3.5-0.7s2.1-1.2,2.9-2.1
		c0.8-0.9,1.4-2,1.8-3.1c0.4-1.1,0.5-2.4,0.4-3.6c-0.5-4.9-2.8-10.4-6.3-18.4c-5.9-13.3-7.8-20.3-19.3-20.3h-10.4l-24-10.6
		c-15.4,8.1-26,12.8-35.1,18.2c-13.4,8.2-24,24.4-13.6,40.6H602z"/>
	<path class="st1" d="M433,263.5v87.9h121.8c19.4-40,30.2-87.9,30.2-87.9l2.9-12.3L433,263.5z"/>
	<path d="M557.2,266.2L433,277.8v73.6h92.9C534.9,330.9,557.2,266.2,557.2,266.2z"/>
	<path class="st3" d="M540.7,344.7c10.2-15.8,18.4-33,24.2-50.9"/>
	<path class="st0" d="M526.2,332.5c-5.1,0-10.1,2-13.7,5.7s-5.7,8.6-5.7,13.7h38.8c0-5.1-2-10.1-5.7-13.7S531.3,332.5,526.2,332.5z"
		/>
	<path class="st1" d="M553.8,351.4c19.4-40,30.3-87.9,30.3-87.9L553.8,351.4z"/>
	<path d="M591.3,351.3c-0.1-0.2-7-17.6-10.6-28.8l-0.2-0.7c-2.4-7.6-4.4-13.7-4.1-19.1l-1.7,0.9c0,5.4,1.9,11.4,4.3,18.7l0.2,0.7
		c3.3,10.2,9.2,25.5,10.4,28.4h1.7V351.3z"/>
	<path class="st4" d="M653.8,349c0.6-0.6,1.1-1.3,1.4-2.2c0.3-0.8,0.4-1.7,0.2-2.5c-0.7-7.1-4.4-15.6-8.3-24.4l-4-9.4l-1.5,0.6
		c1.3,3.2,2.7,6.3,4,9.4C650.3,331.2,654.8,341.5,653.8,349z"/>
	<path class="st2" d="M620.4,322.9c-1.9,7.8-4.6,17.5-8.1,28.5h-21c0,0-6.8-17.5-10.5-28.8c-3.7-11.3-6.4-19.4-2.7-26.9
		c3.7-7.5,9.5-8.1,18.3-3.1l-1.3,14.2l6.7,19l3.1-10.1C611.5,311.4,619.8,313.8,620.4,322.9z"/>
	<path class="st4" d="M593.3,345.1l-1.7-4.9c-3.7-10.9-6.9-20.2-9.1-28.7c-1.8-7-3.3-15.3-2.4-19c-0.7,0.9-1.4,1.9-1.9,2.9
		c0,5.4,1.8,12.9,2.7,16.5c2.3,8.6,5.5,17.9,9.2,28.8l1.7,5c0.7,2.1,1.4,4,2.1,5.7h1.8C594.9,349.6,594.2,347.6,593.3,345.1z"/>
	<path class="st4" d="M608.5,351.4c2.3-7.7,5.6-19,9.9-33.6c0-0.1,0-0.2,0-0.3c0-0.1,0-0.2-0.1-0.3c-0.1-0.1-0.1-0.2-0.2-0.2
		c-0.1-0.1-0.2-0.1-0.3-0.1c-0.1,0-0.2-0.1-0.3-0.1c-0.1,0-0.2,0-0.3,0.1c-0.1,0-0.2,0.1-0.2,0.2c-0.1,0.1-0.1,0.2-0.1,0.3
		c-4.4,14.9-7.7,26.4-10,34.1H608.5z"/>
	<path class="st5" d="M616.6,261.4c-12.6-1.8-17.4-0.9-22.1,9.7s-2.3,19.6,5.5,31s27,9.3,34.3,6.6c7.3-2.7,13.7-10,17.3-20.3
		c3.6-10.3,2.5-21.6-2.9-27.8c-5.4-6.2-14.5-11.3-22.7-8.7C617.8,254.5,616.6,261.4,616.6,261.4z"/>
	<path class="st3" d="M622.7,276.3l-3.8-1"/>
	<path class="st3" d="M622.9,277.9l-3.9,0.5"/>
	<path class="st6" d="M620.4,322.9c1.2-5.1,2.1-9.4,2.6-12.7c1.4-8.6-1.2-10-5-11.1s-6.5-3.2-8.3-9.7s-2.9-6.4-5.1-5.3
		c-2.4,1.3-4.5,3.1-6,5.4c-1.2,2.1-1,4.5,1.3,10.4c1.5,3.7,4,6.9,7.1,9.4l-2.1,6.4C612.6,315.4,617.2,316.4,620.4,322.9z"/>
	<path class="st6" d="M632.9,318.9c-1.1-4.9-2.5-10.2,0-11.6c2.5-1.4,10.2-5,14.4-14.1c0.1-0.2,0.2-0.4,0.4-0.6
		c0.2-0.2,0.4-0.3,0.6-0.4c0.2-0.1,0.5-0.1,0.7-0.1c0.2,0,0.5,0.1,0.7,0.2h0.2c0.2,0.1,0.3,0.2,0.5,0.3c0.1,0.1,0.3,0.3,0.3,0.5
		c0.1,0.2,0.1,0.4,0.1,0.6c0,0.2,0,0.4-0.1,0.6c-2,4.4-4.5,8.5-7.3,12.4c0.6,2.3,1.3,4.6,2.2,6.9C641,315.7,632.9,318.9,632.9,318.9
		z"/>
	<path d="M608.3,302.9c0.1-0.2,0.2-0.4,0.2-0.6c0-0.2-0.1-0.4-0.2-0.6c-1.5-1.6-2.8-3.3-4-5.1c-1.9-3.3-3.7-9.2-2.4-10.7l-1.4,1.3
		c-0.2,0.2-0.4,0.5-0.5,0.8c-0.1,0.3-0.1,0.6-0.1,1c0.5,2.9,1.5,5.8,3,8.4c1.2,2,2.6,3.8,4.2,5.5l0.6,0.2L608.3,302.9z"/>
	<path class="st3" d="M607.8,309.5c2.9-0.4,5.8-0.5,8.7-0.4"/>
	<path class="st3" d="M598.3,336.7l6.3-20"/>
	<path class="st3" d="M601.8,325.8l-6.1-17.5"/>
	<path class="st3" d="M633,319.7c1.8,9.7,5.7,23.3,5.7,23.3"/>
	<path class="st0" d="M551.9,326c-3.5,0-6.8,1.4-9.3,3.8c-2.5,2.5-3.8,5.8-3.8,9.3v12.8h26.1v-12.8c0-3.5-1.4-6.8-3.8-9.2
		C558.7,327.4,555.4,326,551.9,326z"/>
	<path class="st0" d="M564.9,339.1c-1.7,0-3.4,0.3-4.9,0.9c-1.6,0.6-3,1.6-4.2,2.8c-1.2,1.2-2.2,2.6-2.8,4.2c-0.7,1.6-1,3.2-1,4.9
		h25.7c0-3.4-1.3-6.6-3.7-9.1C571.6,340.4,568.3,339.1,564.9,339.1z"/>
	<path class="st7" d="M605,227.5l19.7-3.1"/>
	<path class="st8" d="M624.2,224.5c16.7-2.8,43.5-9,57.4-12.7"/>
	<path class="st3" d="M676.6,214.5l5.3,24.6"/>
	<path class="st9" d="M686.9,238.3v-3.2h-20.6v3.3c0,0.5-0.2,0.9-0.4,1.3c-1,1.5-1.6,3.3-1.6,5.1v13.1c0,2.2,0.8,4.4,2.3,6
		c1.5,1.7,3.5,2.8,5.6,3.1c3,0.4,5.9,0.4,8.9,0c2.2-0.3,4.1-1.4,5.5-3.1c1.4-1.7,2.2-3.8,2.2-6v-13.1c0-1.8-0.5-3.6-1.5-5.1
		C687,239.3,686.9,238.8,686.9,238.3z"/>
	<path class="st10" d="M685,239.7v-4.1h-16.9v4.1c0,0.8-0.2,1.6-0.6,2.3c-0.8,1.2-1.2,2.6-1.2,4v11.2c0,1.9,0.7,3.7,1.9,5.1
		c1.2,1.4,2.9,2.3,4.7,2.6c2.4,0.3,4.8,0.3,7.2,0c1.9-0.2,3.6-1.2,4.8-2.6c1.2-1.4,1.9-3.2,1.9-5.1V246c0-1.4-0.4-2.8-1.1-4
		C685.3,241.3,685,240.5,685,239.7z"/>
	<path class="st9" d="M666.3,236.7c0,1.4,4.6,2.5,10.3,2.5c5.7,0,10.3-1.1,10.3-2.5l-10.3-4.1L666.3,236.7z"/>
	<path class="st3" d="M665.7,235.9c-0.1,0.2-0.1,0.3-0.2,0.5c0,0.2,0,0.3,0,0.5c0,0.2,0.1,0.3,0.2,0.5c0.1,0.1,0.2,0.2,0.4,0.3
		c1.7,1,5.7,1.7,10.4,1.7c4.7,0,8.7-0.7,10.4-1.7c0.3-0.2,0.5-0.5,0.6-0.8s0.1-0.7-0.1-1l-10.9-21.4L665.7,235.9z"/>
	<path class="st4" d="M675.6,258l-3.1-0.7c-0.3-0.1-0.5-0.3-0.7-0.6c-0.1-0.3-0.2-0.6-0.1-0.9c0.1-0.3,0.3-0.5,0.6-0.7
		c0.2-0.1,0.3-0.1,0.5-0.2c0.2,0,0.3,0,0.5,0c0.2,0,0.3,0.1,0.5,0.2c0.1,0.1,0.2,0.2,0.3,0.4L675.6,258z"/>
	<path class="st4" d="M675.6,258l-0.2-3.1c0-0.1,0-0.3,0.1-0.4c0.1-0.1,0.1-0.3,0.2-0.4c0.1-0.1,0.2-0.2,0.3-0.3
		c0.1-0.1,0.3-0.1,0.4-0.1c0.2,0,0.3,0,0.5,0.1c0.1,0.1,0.3,0.2,0.4,0.3c0.3,0.2,0.4,0.5,0.5,0.9c0,0.3-0.1,0.7-0.3,0.9L675.6,258z"
		/>
	<path class="st11" d="M676.2,260.9c-1.7,0.5-3.3,0-3.7-1.1c-0.4-1.1,0.2-1.7,1.8-2.1c0.7-0.2,1.4-0.4,2-0.8c1.3-0.7,2,0.1,2.3,1
		C678.9,258.8,677.9,260.3,676.2,260.9z"/>
	<path class="st12" d="M673.1,257.9l-1.2,0c-0.8,0-1.5,0.6-1.5,1.5l0,0.1c0,0.8,0.6,1.5,1.5,1.5l1.2,0c0.8,0,1.5-0.6,1.5-1.5l0-0.1
		C674.6,258.6,674,257.9,673.1,257.9z"/>
	<path class="st5" d="M640.4,255.8c0,0,15.9-10.8,24,7.2c0,0-7.6,10.6-18.2,3.3C635.5,259,640.4,255.8,640.4,255.8z"/>
	<path class="st4" d="M678.8,246.2l2.8-1.5c0.2-0.2,0.4-0.4,0.5-0.7c0-0.2,0.1-0.3,0-0.5c0-0.2-0.1-0.3-0.1-0.4
		c-0.1-0.1-0.2-0.3-0.3-0.4c-0.1-0.1-0.3-0.2-0.4-0.2c-0.3-0.1-0.7,0-1,0.1c-0.3,0.2-0.5,0.4-0.6,0.8L678.8,246.2z"/>
	<path class="st4" d="M678.8,246.2l-0.5-3.1c-0.1-0.3-0.3-0.6-0.5-0.8c-0.3-0.1-0.6-0.2-0.9-0.1s-0.6,0.2-0.8,0.4
		c-0.2,0.3-0.3,0.7-0.2,1c0.1,0.4,0.3,0.7,0.6,0.9L678.8,246.2z"/>
	<path class="st11" d="M679.6,245.8c1.4,1,2.1,2.6,1.4,3.5c-0.7,0.9-1.5,1-2.8-0.1c-0.5-0.4-1.2-0.8-1.8-1.1
		c-0.2-0.1-0.5-0.2-0.7-0.4c-0.2-0.2-0.3-0.4-0.4-0.7c-0.1-0.2-0.1-0.5,0-0.7c0.1-0.2,0.2-0.5,0.4-0.6
		C676.4,244.7,678.2,244.8,679.6,245.8z"/>
	<path class="st12" d="M678.9,249.4l0.7,1c0.5,0.7,1.4,0.8,2.1,0.3l0.1-0.1c0.7-0.5,0.8-1.4,0.3-2.1l-0.7-1
		c-0.5-0.7-1.4-0.8-2.1-0.3l-0.1,0.1C678.6,247.8,678.4,248.7,678.9,249.4z"/>
	<path class="st9" d="M676.6,237.6c5.7,0,10.3-1.1,10.3-2.5c0-1.4-4.6-2.5-10.3-2.5c-5.7,0-10.3,1.1-10.3,2.5
		C666.3,236.5,670.9,237.6,676.6,237.6z"/>
	<path class="st9" d="M687,235.1h-20.7v1.4H687V235.1z"/>
	<path class="st4" d="M680.8,235.9c-0.5,0.1-0.9,0.4-0.9,0.9c0,0.1,0,0.2,0.1,0.3c0.1,0.1,0.1,0.2,0.2,0.2c0.1,0.1,0.2,0.1,0.3,0.1
		c0.1,0,0.2,0,0.3,0l1.7-0.3c0.2,0,0.4-0.1,0.6-0.3c0.2-0.2,0.3-0.4,0.3-0.6c0-0.1,0-0.2-0.1-0.3c-0.1-0.1-0.1-0.2-0.2-0.2
		c-0.1-0.1-0.2-0.1-0.3-0.1c-0.1,0-0.2,0-0.3,0L680.8,235.9z"/>
	<path class="st3" d="M676.6,214.5l-5.3,24.6"/>
	<path class="st3" d="M677.4,216.2l-2.6-5.6"/>
	<path class="st3" d="M676.8,216.5l0.3-6.4"/>
	<path class="st4" d="M633,281.4c-2.2-4.6-6-7.9-9.5-7.4s-2.1,5.7,2.5,9.2S635.4,286.4,633,281.4z"/>
	<path d="M633.1,281.7c0-0.1-0.1-0.2-0.1-0.3c-1.1-2.3-2.7-4.3-4.7-5.9c-0.6,1.1-0.8,2.4-0.7,3.7c0.2,2.7,1.6,4.8,3.2,4.7
		c0.6-0.1,1.1-0.3,1.5-0.7C632.7,282.8,633,282.3,633.1,281.7z"/>
	<path class="st3" d="M635,291.7c6.3-1.6,8.8-2.3,9.8-0.9c1,1.4,0.1,3-1.4,4.6c1.6,3.5,1.1,5.1-2,5.1c-2.3-0.2-4.5-0.8-6.4-2"/>
	<path class="st3" d="M641.7,293.7c-0.4,1-0.9,2-1.6,2.9"/>
	<path d="M213.6,351.4H224l7.8-23.8h-20.5L213.6,351.4z"/>
	<path class="st13" d="M356.9,343.8h-55.7c-35.8,0-56.4-10.3-71.8-22l-3.6,22h-9.1c0-105.6,13.6-205.8,13.6-205.8
		c2-11.3,23.5-16.4,50.2-7.1c26.7,9.3,33.8,21.2,32.8,32s-9.5,83.6-12.7,117.7l5.7,6.2c2,2,3.4,4.5,4.3,7.2c0.8,2.7,1,5.6,0.5,8.4
		l-0.6,3.3C332.5,319.9,366.5,312.8,356.9,343.8z"/>
	<path class="st14" d="M229.2,165c-0.9,12.6-1.1,17.8-1.1,19.8c0,0.3,0.1,0.6,0.2,0.9c0.1,0.3,0.3,0.6,0.5,0.8
		c5.9,5.9,12.9,7.8,18.4,8.5c0.3,0,0.6,0,0.9-0.1c0.3-0.1,0.6-0.2,0.8-0.5c0.2-0.2,0.4-0.5,0.6-0.8c0.1-0.3,0.2-0.6,0.2-0.9l1.1-16"
		/>
	<path class="st15" d="M224.8,282.3c-3.3,0.1-6.6-0.7-9.5-2.3"/>
	<path class="st15" d="M216.5,286.9c4.3,0.6,9.6-1.3,9.6-1.3"/>
	<path class="st16" d="M275.8,215.1c-0.9,9-1.1,18.9,3.4,21.5c2.8,1.7,8.5,1.5,14.8-1.5c2.5-24.9,5.2-46.3,6.5-58.4l-29.8,4.9
		C267.8,207.3,267.3,215.7,275.8,215.1z"/>
	<path d="M296.5,178.7c4.8-10-8-26.1-28.6-35.9c-20.6-9.8-41.2-9.7-45.9,0.4c-4.8,10,8,26.1,28.6,35.9
		C271.2,188.9,291.8,188.7,296.5,178.7z"/>
	<path class="st17" d="M217.2,329.4c15.4,11.7,36,22,71.8,22h55.7c0.9-2.9,1.5-5.9,1.6-8.9c-59.1,0-93.4-1.2-141-36.8
		c-0.4,14.2-0.7,29.5-0.8,45.7h9.1L217.2,329.4z"/>
	<path class="st4" d="M221.2,279.1c2.6,10.1,9.7,17.8,15.9,17.2c6.2-0.6,6.4-6.4,4-16.1c-0.6-2.6-1.1-5.1-1.6-7.7
		c-1.8-9.2-6.3-13.2-11.8-12.7S218.5,269.1,221.2,279.1z"/>
	<path class="st4" d="M221.2,279.1c2.6,10.1,9.7,17.8,15.9,17.2c6.2-0.6,6.4-6.4,4-16.1c-0.6-2.6-1.1-5.1-1.6-7.7
		c-1.8-9.2-6.3-13.2-11.8-12.7S218.5,269.1,221.2,279.1z"/>
	<path d="M237.5,279.2c1,4.4,0.3,8.3-1.4,8.6c-1.7,0.3-3.8-2-4.5-7.5c-0.7-5.5-0.3-8.5,1.4-8.5S236.6,274.7,237.5,279.2z"/>
	<path class="st16" d="M295.4,312.5c0.1,0,0.3,0,0.4-0.1c0.1-0.1,0.3-0.2,0.3-0.3c0.1-0.1,0.1-0.3,0.2-0.4c0-0.1,0-0.3,0-0.4
		c-2-10-8.1-11.4-19.4-8.8c-11.3,2.6-15.8,3.6-18,4.4c-2.2,0.8-1.2,1.3,13.7,3.6C280.1,311.8,287.8,312.4,295.4,312.5z"/>
	<path d="M345.8,337.4c-11.1,0.1-29.6-0.1-47.8-1.3c-33.8-2.3-64.9-14.9-92.5-37.4v1.8c27.6,22.3,58.6,34.8,92.4,37
		c17,1.2,34.2,1.4,45.5,1.4h2.7L345.8,337.4z"/>
	<path class="st10" d="M239.5,272.6c-1.8-9.2-6.3-13.2-11.8-12.7s-7,4.6-7.4,10.5C226.5,272.4,233,273.1,239.5,272.6z"/>
	<path d="M381.4,192.3l-33.3,18.6c0.6,0.5,1.3,0.9,2.1,1c0.8,0.1,1.6,0,2.2-0.4c1.9-0.8,6.5-5,8.3-6c1.8-1,6.9-3,9.4-4
		c3.1-1.2,6-2.9,8.6-4.9C380.9,194.8,381.7,194.1,381.4,192.3z"/>
	<path class="st18" d="M299.2,123.2c-6.1-3.8-6.4-3.7-9.8-9.8s-7.7-9.1-12.7-9.8l6.2,44.9c13,3.8,21-2.8,22.8-9.3
		C307.5,132.7,305.4,127,299.2,123.2z"/>
	<path class="st18" d="M260.4,177.7l-48.9-52c0.7-3.2,1.8-6.2,3.3-9.1c3.5-7.3,5.2-15.3,5-23.4l-0.2-18v-4.3c0-1.3,0-2.6,0.2-3.9
		c0.5-5.3,2.5-10.2,5.6-14.5c1.4-1.9,3-3.6,4.8-5.1c5.9-4.9,13.5-7.4,21.1-6.8c4.1,0.2,8,1.3,11.7,3.1c4,2,7.4,4.7,10.2,8.1
		c0.5,6.8,3.1,10.7,6.5,12.8c1.2,4.8,1.2,9.7,0.2,14.5l-2.2,10c-0.6,2.9-0.6,6,0.1,8.9c0.7,2.9,2,5.6,3.9,7.9
		c5.3,6.4,9.8,14.9,11.5,22.2C298.3,151.3,283.7,173.8,260.4,177.7z"/>
	<path class="st19" d="M260.4,178.7c23.2-3.9,37.8-26.4,32.7-49.6c-1.6-6.9-5.7-14.9-10.6-21.1"/>
	<path class="st18" d="M277.5,130.6c4.6-7.6,6.4-6.6,14.6-4.4c6.6,1.7,14.2,15.2,4.1,22C286.1,155,265.5,150.9,277.5,130.6z"/>
	<path d="M254.7,108.2c0.9-0.7,1.1-2.1,0.3-3c-0.7-1-2.1-1.2-3-0.5c-0.9,0.7-1.1,2.1-0.3,3C252.4,108.7,253.8,108.9,254.7,108.2z"/>
	<path d="M267.3,109c0.9-0.7,1.1-2.1,0.3-3c-0.7-1-2.1-1.2-3-0.5c-0.9,0.7-1.1,2.1-0.3,3C265,109.5,266.4,109.7,267.3,109z"/>
	<path class="st20" d="M266,107.4c10.7,8.8,6.3,15.1,14.9,28.1"/>
	<path class="st2" d="M253.9,127.1c6.6-4.6,8.6-5.9,11.1-5.8l6.5,0.6l-1.7,26.4l-16.5-0.5L253.9,127.1z"/>
	<path d="M285.9,120.4c0.1-0.3,0.2-0.7,0.1-1.1c0-0.4-0.2-0.7-0.4-1c-0.2-0.3-0.5-0.6-0.8-0.8c-0.3-0.2-0.7-0.3-1.1-0.3l-11-1.6
		c-0.8-0.1-1.6,0.1-2.3,0.5c-0.7,0.4-1.2,1.1-1.4,1.9l-6.2,23c-0.1,0.4-0.2,0.7-0.1,1.1c0,0.4,0.2,0.7,0.4,1
		c0.2,0.3,0.5,0.6,0.8,0.8c0.3,0.2,0.7,0.3,1,0.3l11,1.6c0.8,0.1,1.6-0.1,2.3-0.5c0.7-0.4,1.2-1.1,1.4-1.9L285.9,120.4z"/>
	<path d="M285.4,118.1l1.2,1.4l-3.3,0.3L285.4,118.1z"/>
	<path class="st2" d="M290.8,133.3c-1.4-2.3-2.7-5.2-6.5-5.8l-0.5,4.8L290.8,133.3z"/>
	<path class="st4" d="M287,121.7c0.1-0.3,0.1-0.7,0.1-1.1c-0.1-0.4-0.2-0.7-0.4-1c-0.2-0.3-0.5-0.6-0.8-0.8s-0.7-0.3-1-0.4
		l-11.1-1.6c-0.8-0.1-1.6,0.1-2.3,0.6c-0.7,0.4-1.2,1.1-1.4,1.8l-6.2,23c-0.1,0.3-0.1,0.7-0.1,1.1c0.1,0.4,0.2,0.7,0.4,1
		c0.2,0.3,0.5,0.6,0.8,0.8c0.3,0.2,0.7,0.3,1,0.4l11.1,1.5c0.8,0.1,1.6,0,2.2-0.5c0.7-0.4,1.1-1.1,1.4-1.8L287,121.7z"/>
	<path class="st2" d="M283.6,130.8l4.5,0.7c0.9,0.1,1.7,0.6,2.3,1.3c0.6,0.7,0.9,1.6,0.8,2.5c0,0.5-0.1,0.9-0.4,1.4
		c-0.2,0.4-0.5,0.8-0.9,1.1c-0.4,0.3-0.8,0.5-1.3,0.6c-0.5,0.1-0.9,0.2-1.4,0.1L284,138c-1-0.1-2-0.6-2.7-1.4
		c-0.7-0.7-1.2-1.7-1.3-2.7c0-0.5,0.1-0.9,0.2-1.3s0.5-0.8,0.8-1.1c0.3-0.3,0.8-0.5,1.2-0.6C282.7,130.7,283.2,130.7,283.6,130.8z"
		/>
	<path class="st2" d="M282.1,137.5l3.1,0.5c0.5,0.1,1,0.2,1.5,0.5c0.4,0.3,0.8,0.6,1.1,1.1c0.3,0.4,0.5,0.9,0.5,1.4
		c0.1,0.5,0,1-0.1,1.5c-0.2,0.8-0.7,1.5-1.4,1.9c-0.7,0.4-1.6,0.6-2.4,0.5l-1.9-0.3c-1-0.1-2-0.6-2.7-1.4c-0.7-0.7-1.2-1.7-1.4-2.7
		c0-0.5,0.1-0.9,0.2-1.4c0.2-0.4,0.5-0.8,0.8-1.1c0.4-0.3,0.8-0.5,1.2-0.6C281.2,137.4,281.6,137.4,282.1,137.5z"/>
	<path class="st2" d="M272.4,148.9l-10.8-1.5l0.5-4.4l10.8,1.6L272.4,148.9z"/>
	<path class="st2" d="M275,131.4l-6.8-1c-0.3,0-0.6-0.2-0.9-0.4c-0.2-0.2-0.4-0.5-0.5-0.8l-0.6-1.8l-0.5-3.7l-3.7,13l11,1.6
		c1,0.1,2.1-0.1,3-0.6s1.6-1.3,1.9-2.3c0.1-0.5,0.1-0.9,0-1.4c-0.1-0.5-0.3-0.9-0.6-1.3c-0.3-0.4-0.6-0.7-1-0.9
		C275.9,131.6,275.5,131.4,275,131.4z"/>
	<path class="st2" d="M272.8,138.2l-10.8-1.5l0.5,7.2l8.3,1.2c1,0.2,2-0.1,2.9-0.6c0.9-0.5,1.5-1.3,1.9-2.3c0.1-0.4,0.2-0.9,0.1-1.4
		c-0.1-0.5-0.3-0.9-0.5-1.3c-0.3-0.4-0.6-0.7-1-0.9C273.7,138.4,273.3,138.2,272.8,138.2z"/>
	<path class="st21" d="M354.4,191.9c-2,5.9-9.4,9.3-13.9,10.9c-4.5,1.6-5.1,0.4-8.2-4.7c-5.9,1.1-11.8-1.3-16.2-7.5
		c-4.4-6.2-6.2-10.8-14.4-15l-14.5-28.2c2.2-0.7,4.2-1.2,6-1.7c2,2.1,6.5,1.3,9.4-1.1c4.1,0.2,7.6,1.5,11.3,4.2
		c7.5,5.4,14.7,13.4,20.8,17.2c6.1,3.8,15,5.5,14.7,16.3C353.5,185,356.4,186,354.4,191.9z"/>
	<path class="st18" d="M306.3,135.4c0,0,0.1,6-3.7,9.2c0,0,0,0,0,0c-2.8-0.1-5.8,0.3-9.4,1.1c-0.6-0.6-1-1.5-1-2.7
		c-0.1-5.2,3.8-5.7,5-7.5s0.8-4.5,2.1-6.2c1.3-1.8,3.8-3.2,5-1.4C304.2,127.9,306.2,130.2,306.3,135.4z"/>
	<path class="st22" d="M341.9,199.4c-3.8-0.9-5.3-3-7.7-6.3l-2.1-2.8c-10.3-2.1-14.5-7.6-16.8-11.6c-1.1-1.9-3.1-3.4-5-4.8
		c-1.9-1.4-3.8-2.9-4.9-4.7c-0.8-1.3-1.6-2.8-2.2-4.2c-0.8-2.1-1.5-3.5-2.8-3.9c-1.3-0.4-3.5,0.4-5.6,1.3c-1.9,0.9-3.9,1.6-6,2
		c-0.2,0-0.3,0-0.5-0.1c-0.1-0.1-0.3-0.2-0.3-0.4c0-0.2,0.1-0.4,0.2-0.5c0.1-0.1,0.3-0.2,0.4-0.3c2-0.3,3.8-1,5.6-1.9
		c2.4-1,4.4-1.9,6.5-1.3c2.1,0.6,2.8,2.4,3.7,4.6s1.2,2.6,2,4c1.3,1.7,2.9,3.1,4.7,4.3c2,1.6,4.1,3.2,5.3,5.3c2.3,4.1,6.3,9,16.2,11
		h0.2l0.2,0.2c0.9,1.1,1.6,2.2,2.3,3.1c2.2,3.1,3.6,5,6.8,5.8c0.1,0,0.2,0,0.3,0c0.1,0,0.1,0.1,0.2,0.2c0.1,0.1,0.1,0.2,0.1,0.2
		c0,0.1,0,0.2,0,0.3c0,0.1,0,0.2,0,0.3c0,0.1-0.1,0.1-0.2,0.2c-0.1,0-0.2,0.1-0.2,0.1C342.1,199.4,342,199.4,341.9,199.4z"/>
	<path class="st19" d="M301.1,159c-1.3,4.3-2.2,8.7-2.6,13.2"/>
	<path class="st9" d="M307,211c-9.1,8.2-16.8,5.9-20.4,5.5s-3.2-3-3.5-5.2c-0.3-2.2-0.5-5.5-0.5-5.5c-9.1-0.6-10.2-6.8-10.4-12.3
		c-0.2-5.5-1.6-6.3-2.3-10.2c-11-2-21.3-6.4-30.3-13.1c-9-6.6-16.3-15.2-21.4-25.1l9.5-6.9l21.2,13.8c14.3-5.3,22.2-8,29.9-8.5
		c7.7-0.5,15.3,2.4,17.8,13.1c2.5,10.7,2.8,14,5.1,19.1c0.6,1.3,1.6,3.1,2.6,5c2.8,5.7,5.7,13.7,0,22.4
		C305,205.8,305.9,208.4,307,211z"/>
	<path d="M233.7,165.3c-0.3-7.1,2.4-12.1,7.3-12.9l-12.4-8.6l-9,3.9C221.9,154.1,227.8,161.1,233.7,165.3z"/>
	<path class="st21" d="M289.6,212.9l0.2-1.3c-1.8-0.3-1.9-1.6-2.4-7.7v-0.8l-0.4-0.2c-4-1-6.7-3.4-6.9-11.5c0-3.8-0.8-7.7-2.3-11.2
		c-0.4-0.8-0.7-1.7-0.9-2.6c-0.2-0.8-0.5-1.6-0.7-2.3c-1.1-2.8-1.4-5.9-0.9-8.9c0.4-3.1,0.1-4.8-0.9-5.7c-1-0.9-3.5-0.6-7.2,0.6
		h-0.5c-5.9,1.9-17.7,5.8-29.6,6.8l1.5,1.1c11.6-1.1,22.8-4.8,28.5-6.6l0.5-0.2c3-1,5.1-1.5,6-0.8c0.9,0.7,0.7,2,0.4,4.5
		c-0.5,3.2-0.2,6.5,1,9.5c0.3,0.7,0.5,1.5,0.6,2.2c0.3,0.9,0.6,1.8,1,2.7c1.4,3.4,2.2,7.1,2.2,10.8c0.2,7.5,2.3,11.2,7.4,12.7
		C286.6,210.1,286.8,212.4,289.6,212.9z"/>
	<path class="st18" d="M254.1,125.7c-2.9-2.5-5.1-2.3-8.6-0.8c-3.7-3.4-8.5-3.9-13.5-2.2c-5,1.7-12.7,4-17.2,5.2
		c-0.3,0.1-0.5,0.1-0.8,0.1c-0.3-0.1-0.5-0.2-0.7-0.4c-0.2-0.2-0.3-0.4-0.4-0.7c-0.1-0.3,0-0.5,0.1-0.8l3.3-12
		c-10.7,8-14.2,25.1-10.8,34.4s18.2,9.2,22.9,6.6c4.7-2.6,6.3-3.4,11.7-2.4c5.4,1,9.6,1.7,16.7-3.7l4.2-1.4
		C262.6,138.5,261.2,131.9,254.1,125.7z"/>
	<path class="st21" d="M302.6,144.6c-2.9,2.4-7.4,3.2-9.4,1.1C296.8,144.9,299.8,144.5,302.6,144.6z"/>
	<path class="st19" d="M254.1,125.7c-2.9-2.5-5.1-2.3-8.6-0.8c-3.7-3.4-8.5-3.9-13.5-2.2c-5,1.7-12.7,4-17.2,5.2"/>
	<path class="st19" d="M245.5,124.9c3,2.3,5.5,5.2,7.3,8.5c1.8,3.3,3,6.9,3.4,10.7"/>
	<path class="st13" d="M275.8,121.9c0-0.1,0.1-0.3,0-0.4c0-0.1-0.1-0.3-0.1-0.4c-0.1-0.1-0.2-0.2-0.3-0.3c-0.1-0.1-0.3-0.1-0.4-0.2
		h-1c-0.3-0.1-0.6,0-0.8,0.1c-0.2,0.1-0.4,0.4-0.5,0.7l-0.9,3.3c0,0.1-0.1,0.3,0,0.5c0,0.2,0.1,0.3,0.2,0.4c0.1,0.1,0.2,0.2,0.3,0.3
		c0.1,0.1,0.3,0.1,0.4,0.1h1c0.3,0,0.5,0,0.8-0.2c0.2-0.1,0.4-0.4,0.4-0.6L275.8,121.9z"/>
	<path class="st19" d="M272.8,138.2l-5.7-0.8"/>
	<path class="st19" d="M283.2,137.9l3.2,0.5"/>
	<path class="st20" d="M253.4,106.6c1.2,13.8-5.8,20.4-8,34.1"/>
	<path class="st19" d="M269.1,183.4c-1.8-5.9-2.6-16.7,2.3-26.2"/>
	<path class="st19" d="M268,168.7c-1.1-2.2-1.7-4.6-1.6-7.1"/>
	<path class="st19" d="M218.7,126.8l-7.4,2.4"/>
	<path class="st19" d="M292.2,125.9l5,1.4"/>
	<path class="st2" d="M381.4,192.2c-0.5,0.8-1.2,1.5-1.9,2.2c-3.2,3.2-10.5,6.8-14.4,8.3c-3,0.9-5.7,2.5-8,4.6
		c-2.9,2.3-6.5,5.4-9,3.6c-3.1-2.9-6-6.1-8.6-9.5c-0.1-0.2-0.2-0.4-0.3-0.6c0-0.2,0-0.5,0.1-0.7c1.4-4,5.9-9.7,12.4-12.7
		c0.2-0.1,0.4-0.1,0.7-0.1c0.2,0,0.4,0.1,0.6,0.3c3.8,2.7,6.1,3.4,9.2,3.3c3.1-0.1,9.1-2.1,14-3.5
		C381.1,186,381.2,188.2,381.4,192.2z"/>
	<path class="st12" d="M342.3,204.9c1.8,2.1,3.7,4.1,5.8,6c2.5,1.8,6.1-1.3,9-3.6c2.3-2.1,5-3.7,8-4.6c3.9-1.5,11.2-5.1,14.4-8.3
		c0.7-0.7,1.4-1.4,1.9-2.2c-0.2-4-1.1-6-5.2-4.8c-4.1,1.2-6.4,2.2-9.4,2.9c-0.9,0.2-1.7,0.7-2.3,1.4c-0.6,0.7-1.1,1.5-1.3,2.4
		c-0.1,1.1-0.3,2.2-0.5,3.5c-5.4-1.1-10.6,0.7-11.7,7.8C351,205.4,346.4,202.9,342.3,204.9z"/>
	<path class="st4" d="M379.5,194.4l1.9-2.1c0.1-0.2,0.2-0.5,0.2-0.7c-0.1-0.8-0.3-1.5-0.6-2.2c-0.8,1.5-2.2,3-5.3,5.3
		c-4.9,3.6-10.4,4.9-13.7,6c-3,1.1-5.8,2.9-8.1,5.1c-1.8,2.1-4.2,3.5-6.9,4.2l1.1,0.9c2.5,1.8,6.1-1.3,9-3.6c2.3-2.1,5-3.7,8-4.6
		C369,201.2,376.3,197.6,379.5,194.4z"/>
	<path class="st2" d="M318.5,198.9c-5.1-1.4-10.3,1-14.9,9.7c-1.3-1-4.5-2.1-9.3-1.2c-4.8,0.9-6.6,3-7.4,4.6c-0.5,0.9-0.6,2-0.4,3
		c0.3,1.3,0.7,3,1.3,5.8c0.9,4.3,0.4,8.1,2.8,8.5l33.6-24.2C324.2,205.1,325.1,200.7,318.5,198.9z"/>
	<path class="st12" d="M318.5,198.9c-5.1-1.4-10.3,1-14.9,9.7c-0.6,1.3-1.2,2.6-1.7,4c-5.3-0.5-7.8,1.8-8.7,6.9c0,0-3.5-2.4-5.6,0.4
		c0.1,0.3,0.1,0.6,0.2,0.9c0.9,4.3,0.4,8.1,2.8,8.5l33.6-24.2C324.2,205.1,325.1,200.7,318.5,198.9z"/>
	<path class="st4" d="M324.2,203.7l-2.5-2.3c-4.3-0.7-7.9-0.8-11.7,3.5c-3.8,4.3-6.3,9-10.3,11.8c-5.7,4.2-10.5,5.9-11.2,9
		c-0.7,3.1,0.7,3.4,2.1,3.6l33.6-24.2C324.3,204.6,324.3,204.2,324.2,203.7z"/>
	<path class="st4" d="M319.9,199.9l2.4,0.7c0.2,0,0.4,0.1,0.6,0.2c0.2,0.1,0.3,0.3,0.4,0.5c0.9,1.6,1.3,3.4,1.1,5.2l-8.8-1.6
		c2.9-1.4,3.9-2.7,3.6-4.4c0-0.1,0-0.2,0-0.3c0-0.1,0.1-0.2,0.2-0.2c0.1-0.1,0.2-0.1,0.3-0.1C319.7,199.8,319.8,199.9,319.9,199.9z"
		/>
	<path d="M290.8,229.4c8.6,1.7,12.4-1,16.1-4.8c1.5-1.7,3.3-3.1,5.3-4.3c5.1-2.9,9.1-6,11.8-10.9c2.7-4.9-5.6-8.1-11-3.6
		s-5.7,9.8-16.4,16.4C289.3,226.8,288.3,228.9,290.8,229.4z"/>
	<path class="st4" d="M292,213.8c0-1-0.4-1.8-1-1.9c-0.6,0-1.1,0.7-1.2,1.7c-0.1,1,0.4,1.8,1,1.9C291.4,215.6,292,214.8,292,213.8z"
		/>
	<path class="st4" d="M381.7,191c-0.2-1-0.5-2-1-2.9c-0.1-0.1-0.2-0.2-0.3-0.1h-0.1c-0.2,0-0.2,0.1-0.2,0.2c0.5,2.1,0.7,4.5-0.4,5.9
		C382,192.3,381.8,191.3,381.7,191z"/>
	<path class="st4" d="M346,201.6c0.9-0.2,1.4-1.5,1.1-2.9c-0.3-1.4-1.3-2.4-2.2-2.2c-0.9,0.2-1.4,1.5-1.1,2.9
		C344.1,200.9,345.1,201.8,346,201.6z"/>
	<path class="st21" d="M421,351.4c42.3,0,77-17.6,122.6-57.8s61.6-53.4,74.5-65.9s12-20.6,5.3-36.6s-11.1-13.7-11.1-13.7
		c-0.8-13-13.5-34.5-27.5-51.8s-22.4-14.5-37.8-14.5c-15.4,0-20.5,4.2-27.4,22.6s-24.1,34-56.6,39.7c-32.5,5.7-50.3,5.4-51.2,21.7
		c-0.9,16.3,0,44.4-14.4,66.6c-17.9,8.7-36.7,15.3-56.1,19.7c-11.4,2.6-13.8,10.1-14.9,19.9c-1.1,9.8,2.9,15.1,4.8,18.2
		c-3.9,3.7-3.1,5.3-1.2,14c0.8,3.5,1.7,7,2.5,10.1c0.7,2.3,2,4.2,3.9,5.6c1.9,1.4,4.2,2.2,6.5,2.2H421z"/>
	<path class="st22" d="M326.4,301.3c-1.1,9.8,2.9,15.1,4.8,18.2l78.3,9l75.8-11.1c0,0,50-40.3,43.2-53.7
		c-6.8-13.4-21.1-0.8-40.2,12.2c-19.1,13-38.9,14.2-61.6,10.9c-22.7-3.3-50.2-13-85.4-5.4C329.9,284,327.5,291.5,326.4,301.3z"/>
	<path class="st23" d="M536.6,257c0.1-17.3-0.5-21.4,5.3-20.6c5.8,0.8,15.3,2.7,15.3,2.7l-10.3,16.3L536.6,257z"/>
	<path class="st23" d="M567,230.1c0-8.4-0.7-13.9,1.6-15.1s5,0.3,9.8,4.6C583.2,223.9,567,230.1,567,230.1z"/>
	<path class="st23" d="M336.2,317.4c-1.3-10.1-1-18.1,1.7-20.1c2.7-2,5.3,2.6,7.2,6.6c2.4,5.1,5.4,9.8,9,14.2L336.2,317.4z"/>
	<path class="st23" d="M423,319.6c3.3-13.5,6.1-16.8,8.9-17c2.8-0.2,4.2,6.2,8.2,15.3l-6.6,3.1L423,319.6z"/>
	<path class="st4" d="M603,196.1c-42.5,41.1-67.9,63.7-103.5,90.2s-51.5,33.4-81.4,33.4s-49.1-16.8-86.9-0.2
		c-3.9,3.7-3.1,5.3-1.2,14c0.8,3.5,1.7,7,2.5,10.1c0.7,2.3,2,4.2,3.9,5.6c1.9,1.4,4.2,2.2,6.5,2.2H421c42.3,0,77-17.6,122.6-57.8
		s61.6-53.4,74.5-65.9s12-20.6,5.3-36.6s-11.1-13.7-11.1-13.7C612.3,181.9,612.6,186.7,603,196.1z"/>
	<path class="st12" d="M623.9,192.2c-0.1,5.8-3.7,12.4-13.5,21.4c-19.2,17.5-58.9,53.3-86.2,76.5c-29.9,25.7-57.7,46.9-94.7,46.9
		c-12.9,0-27-2.7-40.7-5.3c-24.1-4.6-47-8.9-58.6,2.7c0.1,0.6,0.3,1.3,0.4,1.9c10.8-11.9,33.7-7.6,57.9-3c13.8,2.6,28,5.3,41,5.3
		c37.5,0,66.7-22.4,95.7-47.2c27.3-23.3,67.1-59.2,86.2-76.6c7.2-6.6,12.4-12.7,13.7-19.4L623.9,192.2z"/>
	<path d="M512,319l-13.9-31.6c-5.3,3.9-10.2,7.4-14.7,10.5l-1.2,1.4c5.2-2.2,10.4,0.7,10.8,9.6c0.1,4.8,0.1,14.5,0.1,22.3
		C499.6,327.5,505.9,323.4,512,319z"/>
	<path d="M348.7,343.4c-8,0.1-11.9,3.3-8.7,6.4c1.2,1.1,2.7,1.7,4.3,1.6H413C378.8,351.4,375.3,343,348.7,343.4z"/>
	<path class="st22" d="M584.3,166.9c-10.3,13.2-13.9,18.4-9.6,32.5c1.8,6.1,4.1,12.6,6,18l22.3-21.3c9.6-9.4,9.3-14.2,9.3-18.7
		c-0.7-11.1-10-28.4-21.5-44C596.6,141.8,594.6,153.7,584.3,166.9z"/>
	<path class="st9" d="M570.6,150.1c5.9-22.5,5.3-37.5-9.2-39c-4.3-0.4-8.9,0-14.4,0c-15.5,0-20.5,4.2-27.4,22.6s-24.1,34-56.6,39.7
		c-32.5,5.7-50.3,5.4-51.2,21.7c-0.9,16.3,0,44.4-14.4,66.6c-2.1,3.7,0.4,6.2,30.3,6.2s47.7-1.8,52.7-14.3s12.2-39.8,15.8-50.6
		s3-17,22.9-21.5C539,177,565,171.8,570.6,150.1z"/>
	<path d="M501.5,178.7c16-6.6,27.3-5.1,44.3-13.2s19.2-14.1,21.3-25.2c2.1-11.1,3.6-24.2-6.7-25.1c-10.3-0.9-19.6-0.5-24.3,1.1
		c-4.7,1.6-5.9,4.5-11,15s-7.6,26.1-30.5,36.3L501.5,178.7z"/>
	<path class="st23" d="M366.7,312.4c0.1,5.1,1.5,12.4,4.3,13.1c2.8,0.7,4.1-5,7-12.1C374.9,310.2,366.7,306.9,366.7,312.4z"/>
	<path class="st6" d="M494.3,289.2c-2.5,0.1-4.9,0.8-7.1,1.9c-9.3,4.7-9.2,8.7-8.9,10.1c12.7-7.7,18.3,0.8,21.9,25.7
		c1.4,9.8,3.9,14.6,11.1,14.6c8.8,0,14-6.2,13.4-22.2c-0.1-3-0.5-6-1-9c-2.5-13.4-7.7-26.9-20.3-26.9c-1.9,0.1-3.7,0.7-5.3,1.7
		S495.2,287.5,494.3,289.2z"/>
	<path class="st24" d="M588.2,244.1c-5.4,4.8-10.8,5.2-12,1c-1.2-4.2,2.1-11.6,7.5-16.3l9.4-8.3c5.4-4.8,10.8-5.2,12-1
		s-2.2,11.6-7.5,16.3L588.2,244.1z"/>
	<path class="st3" d="M494.3,289.2c8.4,0.9,14.8,4.8,17.5,15.4c1.9,7.5,1.3,16.3,2.6,23.9"/>
	<path class="st10" d="M590,169.2l-2.5,3.4c-7.9,10.3-10.8,14.1-2.4,40.6l1.3-1.2c-7.9-25-5.3-28.5,2.3-38.4l2.6-3.4
		c6.2-8.4,8.5-16.7,8.3-23.8l-1.8-2.8C598.8,150.9,596.8,160,590,169.2z"/>
	<path class="st23" d="M476.1,307.6c0.8-4.5-0.2-6.7-2.5-6.4c-2.3,0.3-4.3,1.7-6.5,6.8C468.9,327.5,474.1,319.9,476.1,307.6z"/>
	<path class="st6" d="M558.3,118.4l15.7-2c2.5-0.3,3.4-6,4.5-13.2c1.1-7.2-0.2-20.3-0.2-20.3l-16.2,4.9L558.3,118.4z"/>
	<path class="st2" d="M601.9,78.2c-6.7-7.5-40.7-33.7-40.7-33.7l-8,11.5c0,0,11.3,12.5,19.4,20.9c-16.4,1.3-46,5.2-46,5.2
		c-21-4.2-29.9-6.2-29.9-6.2l21.6-20.5l-7.9-11.8c0,0-20.6,12.6-32.2,21.7c-11.6,9.1-13.5,20.3-2.5,28.8c11,8.5,14.7,11.1,14.7,11.1
		l70.9,7.3c20.8-5.8,33.2-12.1,40.7-18.6C609.5,87.4,608.6,85.7,601.9,78.2z"/>
	<path class="st3" d="M484.5,74.8c2.5,0.4,6.9,1.6,6.9,1.6"/>
	<path d="M556.9,40.9l-7.1,11.9l8,8.2c2.6-2.9,5.2-8,4.4-15.7L556.9,40.9z"/>
	<path class="st6" d="M510.9,92.9c-9.6-11.8-13-16.9-15-22.8c-1.4-4.3,7.1-1.7,18.1,1.6C525,75,523.3,78.1,510.9,92.9z"/>
	<path class="st6" d="M497.1,75.6c-10.1,11.3-10.3,25.1-9.2,44.4c0,0-17.4,17.5-14.9,32.8s26.3,21.9,53.4,21.6
		c21.8-0.2,24.2-5.3,26.2-15.6c1.2-6.7,2.1-14.4,2.7-20.4c0.6-6.3,2.2-12.5,4.7-18.3c13.4-31.1,2.6-42.3,2.6-42.3l-36.2,2.9
		L497.1,75.6z"/>
	<path class="st12" d="M505.1,59.4c-8.5,6.3-6.7,15.9,5.3,29.1l5.4,5.4l34.9-5.7c11.2-13.9,9-23.2,4.9-29c5.7-9.4,6.1-15.9,6-21.7
		c-0.1-9.8-9-25.2-31.4-25c-12.2,0.1-23,4.9-26.9,20.4C501.9,38.3,501.6,47.1,505.1,59.4z"/>
	<path class="st25" d="M532.7,70.6l-2.8,7.1c0,0-2.6,3-5.2,4.8s-6.9,6.1-12.3-2.1c-5.3-8.2,11.8-7,13.7-10.4
		c1.9-3.4-0.9-6.1,3.6-9.3c4.5-3.2,11.5,6.2,11.5,6.2s-3.5-1.2-4.6,1.2C535.9,69.5,534.2,68.6,532.7,70.6z"/>
	<path d="M549.6,25.7l12,11.8v2.4l-11.9-8.3L549.6,25.7z"/>
	<path class="st6" d="M562.6,77.7c-5.6-5.3-12.3-9.5-19.5-12.2c-6.5-2.3-8-2.9-9.5,0.8c-1.5,3.7-3.1,7.9-3.7,9.3s-7.7,6.2-12,9.8
		s-8.8,11.3-8.8,11.3l45.6,3.5L562.6,77.7z"/>
	<path class="st6" d="M572.4,76.7l5.9,6.2c-2.7,8.4-4.4,18.9-5.4,30.6l-23.3,1.7l13-37.4L572.4,76.7z"/>
	<path class="st6" d="M497.1,75.6l-4.3-0.8c-0.7-0.1-1.3,0-2,0.1c-0.6,0.2-1.2,0.5-1.7,1c-4.9,4.5-8.2,10.4-9.4,16.9
		c-1.3,7.6-0.9,8.4,7.9,13.1c5.9,3.2,12-10.8,15.3-20.3c0.4-1,0.5-2.1,0.4-3.2c-0.1-1.1-0.4-2.2-1-3.1c-0.6-1-1.3-1.8-2.2-2.4
		C499.2,76.2,498.2,75.8,497.1,75.6z"/>
	<path class="st1" d="M501.3,153.4c-7.7-8.9-16.3-17-25.7-24l-22.4,11.7l7.3,21.8c0,0,6,7.6,11.6,13.6c5.6,6,15.7,6.2,34.3,7.8
		C513.4,171.8,510.2,163.9,501.3,153.4z"/>
	<path class="st3" d="M464.8,162.5l2-9.7"/>
	<path class="st26" d="M543.4,149.3c-1.8-4.9-7.3-8.8-31.9-10l-9.1-9.2l-25.3,19.3c9,15.2,19.2,33.5,29.3,34.9
		c10.1,1.4,19.2,0.7,31.2-6.6c7.6-4.7,8.6-6.9,8.8-10.9C546.2,160.9,545.2,155,543.4,149.3z"/>
	<path class="st9" d="M570.6,150.1c-5.6,21.7-31.6,26.8-51.5,31.4c-18,4.1-19.2,9.5-21.9,18.5l-13.6-3.6v-14l17.9-3.7
		c16-6.6,27.3-5.1,44.3-13.2s19.2-14.1,21.3-25.2c1.3-6.5,2.3-13.9,0.7-19l5.7,0.8C575,128.9,573.7,138.5,570.6,150.1z"/>
	<path class="st22" d="M418.4,171.6c-1.3,0.8-2.3,2-2.9,3.5c-0.5,1.5-0.6,3-0.1,4.5c2.9,9.2,4.2,16.3,1.5,38.7s-7.2,34.8-9.3,39.4
		c-0.1,0.3-0.2,0.6-0.2,0.9c0,0.3,0.1,0.6,0.2,0.9c0.1,0.3,0.4,0.5,0.6,0.7s0.5,0.3,0.8,0.3c11.2,1.7,28,1.5,46.4-0.9
		c3.1-0.4,6-1.6,8.5-3.5c2.5-1.9,4.4-4.5,5.6-7.4c4.7-11.7,8.6-23.8,11.6-36.1c6.7-27.6,5.9-27.1,20.3-33.8
		c-1.1-9.9-1-19.4-11.8-20.8c-12.6-1.6-26.4,4.6-46.2,10C439,163.9,434.9,161.9,418.4,171.6z"/>
	<path class="st27" d="M472.6,159.4c-8.3,2-17.7,5.4-29.1,8.5c-3.3-2.9-6.4-4.8-14.3-1.7c-0.3,0.7-0.5,1.5-0.7,2.3
		c-3.6,17.9-10.4,47.2,10,45.6c20.4-1.6,22.7-13.7,22.1-24.7c-0.6-11-1.9-17.1,0-20.3C462.5,165.9,469.2,160.3,472.6,159.4z"/>
	<path d="M490.9,184.7c-1.4-11.7-2.3-17.3-5.5-19.5s-4.3-1.5-8.5-0.6c-4.2,0.9-9.5,2.5-16.3,4.5c-12.7,3.7-28.5,8.4-34.5,8l-2-0.3
		c1.4-1.5,10-4.6,15.7-6.7l4-1.5c0.1,0,0.2-0.1,0.3-0.1c0.1-0.1,0.1-0.1,0.2-0.2c0-0.1,0.1-0.2,0.1-0.3c0-0.1,0-0.2,0-0.3l-0.8,0.2
		l-0.7-0.6l-3.6,1.3c-13.3,4.9-17.1,6.6-16.8,8.5c0.3,1.9,1.8,1.5,3.6,1.6c6.2,0.4,21.5-4.1,35.1-8.1c6.7-2,12.5-3.7,16.1-4.4
		c3.6-0.7,5.9-0.7,7.3,0.3s3.6,8,4.9,19.8L490.9,184.7z"/>
	<path class="st3" d="M514.5,53.6c2.7-0.6,5.4-0.6,8.1,0"/>
	<path d="M430.7,133c0.1,0.3,0.2,0.5,0.3,0.5s0.2-0.1,0.3-0.4"/>
	<path class="st1" d="M447.7,128.4c-10.8,4.2-25.9,13-38.9,20.3c-7.2,4-9.4,6.4-5.6,13.7c3.8,7.3,11,14.3,16.4,19.1
		c5.4,4.8,8.4,2.8,12.4,0.2l28.5-18.8l15.1-33.5C469.3,125,458.6,124.1,447.7,128.4z"/>
	<path class="st28" d="M417.2,168.1c4.6,0.9,4.6,1.4,10.3-2.3c5.7-3.7,34.4-21,37.3-22.9"/>
	<path class="st26" d="M489.4,117.8c-4.5-3.3-7.6-3.5-31.8-5.5c-24.2-2-35.5-4.5-38.3-0.1c-2.8,4.4-0.3,15.4,2.5,23.7
		c2.8,8.3,4.4,11,8.3,11.3c3.9,0.3,40.3,1.5,47,2.2l3.3,5.6l31.1-15.7C511.5,139.3,493.8,121.1,489.4,117.8z"/>
	<path d="M412.6,161.4c-6-4.9-8.4-5.8-7.7-2.5c0.7,3.3,4.5,8.2,8.6,12.6s8.8,8.9,10.4,8.6c1.6-0.3-0.3-3.3-2.8-8.1
		C419,168,416.1,164.4,412.6,161.4z"/>
	<path class="st6" d="M419.2,168.7l-5,3.5l-4.1,2.9c-4.9,3.6-2.9,6.5-2.5,9.9c0.4,3.4-0.7,5.9-3,5.9c-2.3,0-5.7-9.6-8.1-14.2
		c-2.4-4.6-10.3-8.3-14.4-11.8c-1.7-1.5-2.1-4,0-4.8c-0.9-1.3-2.1-4.6,0.9-5.6s7.5,4.5,10,6.2s5.6,3.3,7.9,2.3
		c1.6-0.7,3.1-1.5,4.6-2.4l3.4-2.1l3.7,2.9C415.1,163.5,417.3,166,419.2,168.7z"/>
	<path class="st21" d="M570.6,150.1c-5.6,21.7-31.6,26.8-51.5,31.4c-19.9,4.6-19.3,10.6-22.9,21.5c-3.6,10.9-10.8,38.2-15.8,50.6
		l66.5-39.1l27.2-51.6L570.6,150.1z"/>
	<path class="st4" d="M493.5,237.9c-2.2,7.7-4,13.5-5,17.7c-1,4.2,3.6,3.8,8.5,2.4s7-3.5,6.2-7.8
		C502.4,245.9,495.9,229.2,493.5,237.9z"/>
	<path d="M412.6,161.4l-3.7-2.9c-0.9-0.1-1.4-0.1-1.8,0.2c-0.4,0.3-0.3,0.5-0.2,1c2.3-0.4,8,3.7,8.2,11.8c1.3,0.6,2,1,2.5,0.7
		s1.2-1.7,1.6-3.5C417.3,166,415.1,163.5,412.6,161.4z"/>
	<path class="st5" d="M403.8,186.5c-1-3.8-4.4-11.6-7.3-14.7c-2.9-3.1-7.5-10.4-9-12.8s-5.4-5.4-6.3-2.7c-0.2,1.3,0.1,2.7,0.9,3.8
		c-2.1,0.8-1.7,3.3,0,4.8c4.1,3.5,11.8,6.7,14.4,11.8c2.6,5.1,4.4,12.5,7.2,14l0.8,0.2C405,190.8,404.7,189.4,403.8,186.5z"/>
	<path class="st25" d="M518.2,6.5c-1.3,3.6-1.4,7.4-0.4,11.1c0.2,0.6,0.5,1.2,1.1,1.6c0.5,0.4,1.2,0.6,1.8,0.6h6.1
		c0.7,0,1.4-0.1,2-0.4c0.6-0.3,1.2-0.7,1.6-1.2c3.7-3.9,10.4-4.9,15.6-2.7l3.1-4.5c0.3-0.4,0.5-1,0.5-1.5c0-0.6-0.3-1.1-0.7-1.5
		c-3-2.9-6.7-5-10.6-6.4c-4-1.3-8.1-1.8-12.3-1.3c-1.7,0.2-3.4,0.9-4.8,2C519.8,3.4,518.8,4.8,518.2,6.5z"/>
	<path d="M573.3,108.8c-0.4,4.7,0.4,6.3,1.5,4.4c0.8-1.7,1.2-3.5,1.4-5.4L573.3,108.8z"/>
	<path class="st3" d="M561.3,78.1c-8.6,1.1-13.4,2.6-17.7,4.6"/>
	<path class="st3" d="M578.9,84.1l3.7,3.7"/>
	<path class="st3" d="M557,119.6c0,0-4.5,3.3-7.4,5.7"/>
	<path class="st29" d="M517.5,93.8l-0.8,11.8h-5.3c0.3-3.9,0.9-7.7,1.8-11.5c0.2-0.6,0.5-1.3,0.9-1.8l0,0c1.3-1.7,2.9-3.1,4.6-4.4
		l9.2-6.9c2.6-1.9,4.6-4.6,5.7-7.6c1.3-3.4,2.9-7.7,3.6-8.6"/>
	<path class="st30" d="M573.2,77.5c-4.2,10.6-8.8,28.6-5.3,37.2c0.4,0.8,0.8,1.6,1.3,2.3l2-0.2c-0.8-0.8-1.4-1.7-1.8-2.7
		c-3.2-7.7,0.8-24.3,5-35.3L573.2,77.5z"/>
	<path class="st30" d="M480.6,101.4c0.4,0.5,0.9,0.9,1.4,1.2c1-11.7,5.8-21.6,13.2-27.4l-2-0.3C486.3,80.8,481.7,90.3,480.6,101.4z"
		/>
	<path class="st3" d="M560.9,118.9l-11.1,1.3"/>
	<path class="st10" d="M546,161.3c-4,2.7-12.5,6.8-17.9,8c-1.3,0.3-2.7,0.4-4.1,0.4c-2.2,0.1-4.3-0.4-6.3-1.3
		c-2-0.9-3.6-2.3-4.9-4.1l-5.2-7.3c-4.5-6.4-10.2-14.3-14.3-20c-0.1-0.2-0.1-0.3-0.2-0.4c-6.2-8.7-9.5-12.5-14.1-13.2
		c-4.6-0.7-17.9-1.9-41.2-3.7c-5.8-0.4-6.7-0.3-7.8,2.3c0,0.1-0.1,0.2-0.2,0.3c-0.1,0.1-0.2,0.1-0.3,0.2c-0.1,0-0.2,0.1-0.3,0
		c-0.1,0-0.2,0-0.3-0.1c-0.2-0.1-0.3-0.2-0.4-0.4c-0.1-0.2-0.1-0.4-0.1-0.6c1.6-3.9,4-3.7,9.4-3.3c13.6,1.1,36.9,2.9,41.4,3.7
		c4.5,0.8,9.4,5.9,15.1,13.9c0,0.1,0.1,0.2,0.2,0.3c4.1,5.7,9.7,13.7,14.3,20l5.2,7.4c2.8,3.9,7.9,5.5,13.6,4.3s15-6,18.1-8.2
		C545.9,160.1,546,160.7,546,161.3z"/>
	<path d="M422.4,113.9c-2.9,2.7-1.4,8,0.6,15.3c2,7.3,4.5,13.9,5.8,13.7c1.3-0.2,2-2.8,2.3-6.6c0.3-3.8,0.2-10.6-1.3-15.7
		S424.6,111.8,422.4,113.9z"/>
	<path class="st6" d="M431.3,133.1l-7.4-0.9c-3.6-0.5-7.2-0.8-10.8-1c-0.7,4.3-2.2,9.8-4.3,12s-5.8,2.1-6.2-2.9
		c-0.4-5-0.1-12.1-3.4-26.9c-1.2-5.5-3.4-8.8-4.2-13c-0.8-4.2,1.6-4.9,3.8-4.5c-0.5-2.8-0.3-6.4,3.2-6.9s4.9,2.5,4.9,6.4
		c0.5-0.7,1.3-1.2,2.1-1.5c0.9-0.2,1.8-0.2,2.6,0.2c2.4,0.9,2.9,3.9,2.6,8.7c-0.3,4.8-0.4,9.9,1.6,11.6c2,1.7,2.5,1.1,5.3,1.5
		l6.8,0.6c0.8,1.3,1.5,2.7,1.9,4.1C430.8,124.7,431.3,128.9,431.3,133.1z"/>
	<path d="M431.3,133.1c0-4.2-0.5-8.4-1.5-12.5c-0.4-1.4-1.1-2.8-1.9-4.1H427c2.5,3.2,4,11.6,0,16.1c0.6,0.5,1.2,0.8,1.9,1.1
		C429.7,133.8,430.6,133.6,431.3,133.1z"/>
	<path class="st5" d="M411.7,100c0.4-4.7-2.9-6.7-4.8-4.6c0-3.9-1.3-6.9-4.9-6.4s-3.7,4.1-3.2,6.9c-2.2-0.4-4.6,0.4-3.8,4.5
		c0.8,4.1,3,7.5,4.2,13c3.3,14.8,2.9,21,3.4,26.9c0,1.2,0.4,2.3,1.1,3.3c2.3,2.4,3.3-0.5,3.2-4.9c-0.1-6.9,0.3-13.8,1.2-20.6
		C409.1,110.1,411.4,104.7,411.7,100z"/>
	<path class="st6" d="M402.4,89c3.1-0.1,3.2,3.8,3.1,8.1l1.4-1.7C406.9,91.7,405.7,88.7,402.4,89z"/>
	<path class="st3" d="M482.7,138.2c-1.6,3.9-3.4,7.6-5.6,11.2c4.6-2,6.5-3,6.5-3"/>
	<path class="st3" d="M512.4,140.2L523,151c8.6,1.1,10.6,2.9,12.9,5.8"/>
	<path class="st3" d="M523,151l9.7,0.3"/>
	<path d="M496.6,252.1c-1.3,3.3-3.5,5.5-4.9,5c-1.4-0.5-1.4-2.1,0-5.2c0.6-1.3,1.1-2.6,1.5-3.9c0.8-2.9,2.3-3.4,3.4-2.9
		C497.7,245.6,498,248.7,496.6,252.1z"/>
	<path class="st31" d="M418,207.6c-0.1,1.7-0.3,3.6-0.5,5.6l22.4,2.5l-23.6,7.4c-0.5,3.4-1,6.5-1.5,9.4l15.6,1.6
		c-5.3,1.9-11.1,3.9-17.3,6.3c-0.8,3.5-1.6,6.5-2.4,9l7.3,0.2l-8.2,2.3c-0.6,2-1.3,3.9-2.2,5.8c-0.1,0.3-0.2,0.5-0.2,0.8
		c8.9-2.8,17.9-5.1,26.6-7c8.9,1.6,17.6,3.8,26.2,6.7c2.2-0.9,4.1-2.3,5.7-4c-3.4-1.2-8.4-2.8-14.5-4.5l-3.5-0.9
		c8.3-1.4,16-2.6,23-3.5c1.1-2.8,2.3-6.1,3.5-9.7c-6.5-1.5-13.2-2.7-19.7-3.8c9.4-2.9,16.8-5,23-6.5c1-3.4,2-7,3-10.8l-13.5-1.4
		l14.9-4.6l1.6-6.3l-30.5,9.3L418,207.6z M468.3,240c-10.2,1.4-22.1,3.2-34.5,5.9c-4.7-0.8-9.6-1.4-14.7-1.8
		c8.9-3.3,16.7-6.1,23.7-8.4C450.9,236.8,459.7,238.2,468.3,240z M476.9,219.7c-8.5,2.1-19.5,5.2-34.6,10.3
		c-8.1-1.1-15.4-1.9-21.3-2.5l32.8-10.3L476.9,219.7z"/>
	<path class="st31" d="M418.4,199.7c-0.1,1.9-0.1,4-0.3,6.4c25.6-0.8,54.9-3.9,65.9-5.2c0.6-2.6,1.2-4.8,1.8-6.7
		C477.9,195.2,446,198.9,418.4,199.7z"/>
	<path d="M461.7,252.8l4.2,1.4c-1.6,1.7-3.5,3.1-5.7,4l-4-1.3C458.3,255.9,460.2,254.5,461.7,252.8z"/>
	<path d="M471.1,234.9l3.3,0.7c-1.2,3.6-2.4,6.9-3.5,9.7l-4.4,0.6C468.4,242.4,469.9,238.7,471.1,234.9z"/>
	<path d="M476.8,214.1l3.9,0.4c-1,3.8-2,7.4-3,10.8l-4,1c0.6-2,1.1-4.1,1.6-6.2c0.1-0.2,0.1-0.4,0.2-0.6
		C475.9,217.7,476.4,215.9,476.8,214.1z"/>
	<path d="M479.4,203.5l4.3-1.3l-1.6,6.3l-4.3,1.3C478.3,207.7,478.9,205.6,479.4,203.5z"/>
	<path d="M485.8,194.2c-0.6,1.9-1.2,4.1-1.8,6.7l-4.1,0.4l1.8-6.6L485.8,194.2z"/>
	<path d="M409.8,251.9l5-1.4c-0.7,2.2-1.4,4.3-2.2,6.4l-5.2,1.6c0-0.3,0.1-0.5,0.2-0.8C408.5,255.8,409.2,253.9,409.8,251.9z"/>
	<path d="M413.1,240.4l4.5-1.7c-0.7,3.8-1.5,7.3-2.5,10.8h-4.4C411.5,247,412.3,243.9,413.1,240.4z"/>
	<path d="M416.3,223.1l3.7-1.2c-0.4,3.9-0.9,7.5-1.4,11l-3.8-0.4C415.3,229.6,415.8,226.5,416.3,223.1z"/>
	<path d="M418,207.6l3.4,0.4l-0.6,5.5l-3.3-0.3C417.7,211.2,417.9,209.3,418,207.6z"/>
	<path d="M422.2,199.6l-0.6,6.4h-3.5c0.2-2.4,0.2-4.5,0.3-6.4H422.2z"/>
	<path class="st4" d="M519.6,225l0.2,8.5c0,0.4,0.1,0.9,0.4,1.2c0.2,0.4,0.5,0.7,0.9,0.9c0.4,0.2,0.8,0.3,1.3,0.3
		c0.4,0,0.9-0.1,1.2-0.4c0.5-0.3,0.8-0.7,1-1.2c0.2-0.5,0.2-1.1,0.1-1.6l-2.9-10L519.6,225z"/>
	<path class="st31" d="M505,199.4c8,2.5,9.6,11,11.3,25.4c0,0.4,0.2,0.7,0.4,1c0.2,0.3,0.5,0.5,0.8,0.7c0.3,0.1,0.7,0.2,1,0.2
		c0.4,0,0.7-0.2,1-0.4l2.8-2.1c0.7-0.5,1.3-1.2,1.7-2.1c0.4-0.8,0.5-1.7,0.3-2.6c-0.3-1.8-0.8-4.6-1.3-8.4
		c-1.2-7.4-6.1-16.4-15.5-17.5c-0.5-0.1-1,0.1-1.5,0.3c-0.4,0.3-0.8,0.6-1,1.1c-0.5,1.1-0.7,2.4-0.7,3.6c0,0.2,0.1,0.4,0.2,0.6
		C504.6,199.2,504.8,199.3,505,199.4z"/>
	<path class="st25" d="M508.2,23.6c0,0,1.8,19.5-18.2,15.8C489.9,39.4,485.9,19.9,508.2,23.6"/>
	<g>
		<path d="M548.3,25.2c0.3,0,0.5,0.1,0.8,0.2c0.2,0.1,0.5,0.3,0.6,0.5c0.2,0.2,0.3,0.4,0.4,0.7c0.1,0.3,0.1,0.5,0.1,0.8L549,40.8
			c-0.4,3-1.8,5.8-4,7.9c-2.2,2.1-5.1,3.3-8.2,3.4h-2.7c-3.2,0-6.3-1.1-8.7-3.2s-4-5-4.4-8.1l-0.5-4.5c-0.1-0.5-0.3-1-0.7-1.4
			c-0.4-0.3-0.9-0.5-1.5-0.5c-0.6,0-1.1,0.2-1.5,0.6c-0.4,0.4-0.7,0.9-0.7,1.4l-0.6,7.2c-0.2,2.4-1.3,4.6-3.1,6.2
			c-1.8,1.6-4,2.5-6.4,2.6c-1.4,0.1-2.9-0.2-4.2-0.8c-1.3-0.6-2.5-1.4-3.5-2.4c-1-1.1-1.7-2.3-2.1-3.7c-0.4-1.4-0.6-2.8-0.4-4.2
			l1.2-13.6c0.1-0.5,0.3-1,0.7-1.4c0.4-0.4,0.9-0.6,1.5-0.6L548.3,25.2z"/>
		<path class="st10" d="M496,39.3l19-13.8l-7.1,0.1l-11.4,8.3L496,39.3z"/>
		<path class="st10" d="M500.6,51c1.6,1,3.5,1.4,5.4,1.4c2.4,0,4.7-1,6.4-2.6c1.8-1.6,2.8-3.8,3.1-6.2l0.3-3.6L500.6,51z"/>
		<path class="st10" d="M548.3,25.2h-7.9l-19.5,14.1v1.5c0.2,1.5,0.7,3,1.5,4.4l27.1-19.5C549.2,25.4,548.7,25.2,548.3,25.2z"/>
		<path class="st10" d="M549,40.8l0.6-6.5l-22.2,16.1c2,1.1,4.4,1.7,6.7,1.7h2.7c3-0.1,5.9-1.3,8.2-3.4
			C547.2,46.6,548.6,43.8,549,40.8z"/>
	</g>
	<path class="st32" d="M516.8,47.7c0,0-2.7,5.6,2.5,5.7c5.8,0.1,2.6-5.7,2.6-5.7"/>
	<path class="st5" d="M600.3,266.4c0,0-16.9-9.3-23.2,9.5c0,0,8.5,9.8,18.4,1.5C605.5,269.1,600.3,266.4,600.3,266.4z"/>
	<path class="st33" d="M646.2,264.1l0.7,1.1"/>
	<path class="st33" d="M636.3,256.8c2.6,0.8,5,2.1,7,3.9"/>
	<path class="st24" d="M600.2,270.1c1.2,1.2,2.8,2.2,4.5,1.8c1.8-0.4,2.8-2.3,4.5-3c1.6-0.7,3.5-0.2,5.3,0s3.9-0.1,4.7-1.7
		c0.5-1,0.3-2.3-0.1-3.4c-0.2-0.6-0.4-1.3-0.9-1.7c-0.4-0.3-0.9-0.4-1.3-0.5c-3.3-0.8-6.7-1.5-10-1.3
		C601.6,260.7,595,264.7,600.2,270.1z"/>
	<path class="st24" d="M647.7,270.5c-1.8-0.1-3.8,0-5.1,1.2c-1.7,1.4-2,3.8-2.2,6c-0.2,1.8-0.3,3.7,0.2,5.5c0.6,1.8,2,3.3,3.9,3.4
		c0.5,0,1-0.1,1.5,0c1.1,0.2,1.9,1.2,2.7,1.8s2.3,1,3,0.1c0.1-0.2,0.2-0.5,0.3-0.7c1-3.7,1.7-7.6,1.8-11.5c0.1-1.4,0.1-3.9-1.1-4.9
		C651.5,270.4,649,270.5,647.7,270.5z"/>
	<path class="st3" d="M650.5,276l3-2"/>
	<path class="st3" d="M650.3,277.7l3.1-0.5"/>
	<path class="st4" d="M648.7,281.4c3.3-3.8,2.8-6.1,1.7-6.8c-1.1-0.7-2.8,0.6-5.8,5.4S644.1,286.6,648.7,281.4z"/>
	<path d="M650.2,277.2c0.2-0.9,0.1-1.8-0.2-2.7c-0.9-0.1-2.3,0.9-4.2,3.6c0.2,1.4,0.9,2.4,1.7,2.5S650,279.3,650.2,277.2z"/>
	<circle class="st34" cx="625.1" cy="280.6" r="11.7"/>
	<ellipse class="st34" cx="648.7" cy="277.5" rx="10.1" ry="11.7"/>
</g>
<g id="Layer_2">
	<path class="st18" d="M273.2,51.4c0,0,21.5-11.5,24.7,13.8c0,0-22.7,8.2-24.7-12.9C273.3,52,273.3,51.7,273.2,51.4z"/>
	<path class="st35" d="M298,65.2c0,0-1.8-5.5-8.9-6c-7.2-0.5-15.8-6.9-15.8-6.9S275.3,72.5,298,65.2z"/>
	<path class="st18" d="M279.8,64.6c-3.4-2.1-6-6-6.5-12.8c1.7,2,3.1,4.3,4.3,6.7C278.5,60.5,279.2,62.5,279.8,64.6z"/>
	<path class="st36" d="M253.4,40.8c0,0-1.5,16.4,12.2,19.1C279.2,62.6,279,62,279,62S273.9,43.5,253.4,40.8z"/>
	<path class="st25" d="M577.6,37c0,0-17,9.6-21.8-10.2C555.8,26.8,571.9,15.1,577.6,37"/>
	<path class="st2" d="M229.9,76c-1.1,5.8-0.8,11.8,4.3,15c3.7,2.3,12.8,2.9,17.8,2.7c1.6-0.1,12.9,0,16.4-2.5
		c6-4.3,5.4-12.1,4.3-16.7c-2.2-9.9-10.2-18.1-22.1-17.6C238.9,57.3,231.9,66,229.9,76z"/>
	<g>
		<path class="st37" d="M258,85.4c-1.1,0.7-2.5,0.3-2.9,0.2c-1.3-0.4-1.4-1.1-2.3-1.1c-1,0-1,0.8-2.3,1.1c-0.4,0.1-1.8,0.5-2.9-0.2
			c-1.4-0.9-1.6-3.1-1.1-4.5c0.7-2.5,3.7-4.1,6.2-4.1c0,0,0,0,0.1,0c0,0,0,0,0.1,0c2.6,0,5.5,1.5,6.2,4.1
			C259.6,82.3,259.4,84.5,258,85.4z"/>
	</g>
	<circle class="st19" cx="242.5" cy="79.6" r="1"/>
	<circle class="st19" cx="263.3" cy="79.6" r="1"/>
	<circle class="st19" cx="266" cy="56.8" r="1"/>
	<circle class="st19" cx="237.8" cy="56.5" r="1"/>
	<ellipse class="st19" cx="252.9" cy="77.4" rx="1.9" ry="0.7"/>
	<line class="st38" x1="240.3" y1="83.4" x2="233.5" y2="82.5"/>
	<line class="st38" x1="240.2" y1="86.1" x2="233.5" y2="87.1"/>
	<line class="st38" x1="272.5" y1="83" x2="265.9" y2="84.3"/>
	<line class="st38" x1="272.5" y1="88.3" x2="265.9" y2="86.6"/>
	<ellipse class="st35" cx="250.9" cy="60.3" rx="10.4" ry="5.4"/>
	<path class="st39" d="M229.3,48.9c0,0-1.4-10.8,2.2-9.1c3.6,1.7,5.4,5.3,5.4,5.3C237.1,44.9,236.2,50.4,229.3,48.9z"/>
	<path class="st39" d="M270.7,49c0,0,1.6-10.8-2-9.1s-5.5,5.2-5.5,5.2C263,44.8,263.8,50.4,270.7,49z"/>
	<path class="st18" d="M228.8,49.1c0,0-21.5-11.5-24.7,13.8c0,0,22.7,8.2,24.7-12.9C228.7,49.7,228.7,49.4,228.8,49.1z"/>
	<ellipse cx="248.2" cy="56.9" rx="0.8" ry="0.4"/>
	<ellipse cx="253.5" cy="56.9" rx="0.8" ry="0.4"/>
	<path class="st35" d="M204,62.9c0,0,1.8-5.5,8.9-6c7.2-0.5,15.8-6.9,15.8-6.9S226.8,70.2,204,62.9z"/>
	<path class="st19" d="M221.5,62.4c1.2,0,2.4-0.6,3.2-1.5s1.5-1.9,2-3c0.4-1,0.8-2,0.8-3.1"/>
	<path class="st19" d="M280.3,63.3c-1.5-1.2-2.7-2.9-3.3-4.7"/>
</g>
</svg>
